<svg width="356" height="38" viewBox="0 0 356 38" fill="none" xmlns="http://www.w3.org/2000/svg">
<path fill-rule="evenodd" clip-rule="evenodd" d="M332.7 18.6C332.967 18.2666 333.267 18.0333 333.6 17.9C333.867 17.7666 334.167 17.7 334.5 17.7C334.7 17.7 334.867 17.7333 335 17.8C335.133 17.8666 335.267 17.9666 335.4 18.1C335.133 17.9666 334.967 17.9 334.9 17.9C334.367 17.9 333.9 18.1333 333.5 18.6C333.1 19.0666 332.867 19.6333 332.8 20.3L322 19.4V19.2L332.7 18.6ZM332.3 19.4C332.367 19.2666 332.4 19.2 332.4 19.2C332.4 19.1333 332.433 19.0666 332.5 19L325 19.4H332.3ZM340 18.3C339.733 18.1 339.467 18 339.2 18C338.867 18 338.567 18.1 338.3 18.3C337.967 18.5 337.6 18.9 337.2 19.5C336.733 20.0333 336.333 20.4 336 20.6C335.6 20.8 335.233 20.9 334.9 20.9C334.5 20.9 334.167 20.7666 333.9 20.5C334.167 20.6333 334.4 20.7 334.6 20.7C334.933 20.7 335.233 20.6333 335.5 20.5C335.7 20.3 336.033 19.9333 336.5 19.4C336.967 18.8 337.4 18.4 337.8 18.2C338.133 17.9333 338.5 17.8 338.9 17.8C339.3 17.8 339.667 17.9666 340 18.3ZM335.9 19C335.9 19.3333 335.767 19.6333 335.5 19.9C335.233 20.2333 334.967 20.4 334.7 20.4C334.567 20.4 334.433 20.3333 334.3 20.2C334.167 20.1333 334.1 20 334.1 19.8C334.1 19.4666 334.233 19.1333 334.5 18.8C334.767 18.5333 335.067 18.4 335.4 18.4C335.533 18.4 335.667 18.4666 335.8 18.6C335.867 18.6666 335.9 18.8 335.9 19ZM335.5 18.7C335.233 18.7 334.967 18.8333 334.7 19.1C334.5 19.3 334.4 19.5333 334.4 19.8C334.4 19.9333 334.467 20.0666 334.6 20.2C334.8 19.4666 335.1 18.9666 335.5 18.7ZM343.9 18.3C343.633 18.1 343.333 18 343 18C342.733 18 342.467 18.1 342.2 18.3C341.933 18.5 341.533 18.9 341 19.5C340.6 20.0333 340.233 20.4 339.9 20.6C339.5 20.8 339.133 20.9 338.8 20.9C338.4 20.9 338.067 20.7666 337.8 20.5C338.067 20.6333 338.3 20.7 338.5 20.7C338.833 20.7 339.133 20.6333 339.4 20.5C339.6 20.3 339.933 19.9333 340.4 19.4C340.867 18.8 341.3 18.4 341.7 18.2C342.033 17.9333 342.4 17.8 342.8 17.8C343.2 17.8 343.567 17.9666 343.9 18.3ZM339.8 19C339.8 19.3333 339.667 19.6333 339.4 19.9C339.133 20.2333 338.867 20.4 338.6 20.4C338.4 20.4 338.267 20.3333 338.2 20.2C338.067 20.1333 338 20 338 19.8C338 19.4666 338.133 19.1666 338.4 18.9C338.667 18.5666 338.967 18.4 339.3 18.4C339.433 18.4 339.533 18.4666 339.6 18.6C339.733 18.6666 339.8 18.8 339.8 19ZM339.3 18.7C339.033 18.7 338.8 18.8333 338.6 19.1C338.4 19.3 338.3 19.5333 338.3 19.8C338.3 19.9333 338.367 20.0666 338.5 20.2C338.7 19.4666 338.967 18.9666 339.3 18.7ZM344.5 18.5L355.3 19.2V19.4L344.7 20.1C344.167 20.7 343.567 21 342.9 21C342.5 21 342.133 20.8333 341.8 20.5C342.133 20.7 342.4 20.8 342.6 20.8C343.067 20.8 343.5 20.5666 343.9 20.1C344.233 19.7 344.433 19.1666 344.5 18.5ZM343.7 19C343.7 19.3333 343.567 19.6333 343.3 19.9C343.033 20.2333 342.767 20.4 342.5 20.4C342.3 20.4 342.167 20.3333 342.1 20.2C341.967 20.1333 341.9 20 341.9 19.8C341.9 19.6 341.967 19.3666 342.1 19.1C342.233 18.9 342.4 18.7333 342.6 18.6C342.8 18.4666 343 18.4 343.2 18.4C343.333 18.4 343.433 18.4666 343.5 18.6C343.633 18.6666 343.7 18.8 343.7 19ZM343.2 18.7C342.933 18.7 342.7 18.8333 342.5 19.1C342.3 19.3 342.2 19.5333 342.2 19.8C342.2 19.9333 342.267 20.0666 342.4 20.2C342.533 19.5333 342.8 19.0333 343.2 18.7ZM345.4 19C345.333 19.1333 345.233 19.2666 345.1 19.4H352.4L345.4 19Z" fill="#DDBA5F"/>
<path fill-rule="evenodd" clip-rule="evenodd" d="M33.3 19.2V19.4L22.5 20.3C22.5 19.6333 22.3 19.0666 21.9 18.6C21.5 18.1333 21.0333 17.9 20.5 17.9C20.3667 17.9 20.2 17.9666 20 18.1C20.1333 17.9666 20.2667 17.8666 20.4 17.8C20.5334 17.7333 20.7 17.7 20.9 17.7C21.2334 17.7 21.5334 17.7666 21.8 17.9C22.0667 18.0333 22.3667 18.2666 22.7 18.6L33.3 19.2ZM30.4 19.3L22.9 19C22.9 19 22.9333 19.0333 23 19.1C23 19.1666 23.0333 19.2333 23.1 19.3H30.4ZM16.5 17.7C16.8333 17.7 17.2 17.8333 17.6 18.1C17.9333 18.3666 18.3334 18.7666 18.8 19.3C19.2667 19.9 19.6334 20.2666 19.9 20.4C20.1667 20.6 20.4333 20.7 20.7 20.7C20.9667 20.7 21.2333 20.6 21.5 20.4C21.2333 20.7333 20.8667 20.9 20.4 20.9C20.0667 20.9 19.7334 20.7666 19.4 20.5C19.0667 20.3 18.6667 19.9333 18.2 19.4C17.7333 18.8666 17.3667 18.5 17.1 18.3C16.8333 18.1 16.5333 18 16.2 18C15.9333 18 15.6667 18.0666 15.4 18.2C15.7334 17.8666 16.1 17.7 16.5 17.7ZM19.6 18.5C19.6667 18.3666 19.8 18.3 20 18.3C20.2667 18.3 20.5334 18.4666 20.8 18.8C21.0667 19.0666 21.2 19.3666 21.2 19.7C21.2 19.9 21.1667 20.0666 21.1 20.2C20.9667 20.2666 20.8333 20.3 20.7 20.3C20.3667 20.3 20.1 20.1666 19.9 19.9C19.6334 19.5666 19.5 19.2333 19.5 18.9C19.5 18.7 19.5333 18.5666 19.6 18.5ZM20.8 20.1C20.8667 19.9666 20.9 19.8333 20.9 19.7C20.9 19.4333 20.8 19.2 20.6 19C20.4 18.8 20.1667 18.6666 19.9 18.6C20.3 18.9333 20.6 19.4333 20.8 20.1ZM12.6 17.7C12.9333 17.7 13.3 17.8333 13.7 18.1C14.0333 18.3666 14.4334 18.7666 14.9 19.3C15.3667 19.9 15.7333 20.2666 16 20.4C16.2667 20.6 16.5334 20.7 16.8 20.7C17.0667 20.7 17.3333 20.6 17.6 20.4C17.3333 20.7333 17 20.9 16.6 20.9C16.2 20.9 15.8333 20.7666 15.5 20.5C15.1667 20.3 14.7667 19.9333 14.3 19.4C13.8334 18.8 13.4667 18.4333 13.2 18.3C12.9333 18.1 12.6334 18 12.3 18C12.0334 18 11.7667 18.0666 11.5 18.2C11.8333 17.8666 12.2 17.7 12.6 17.7ZM15.7 18.5C15.8333 18.3666 15.9667 18.3 16.1 18.3C16.4333 18.3 16.7333 18.4666 17 18.8C17.2667 19.0666 17.4 19.3666 17.4 19.7C17.4 19.9 17.3333 20.0666 17.2 20.2C17.0667 20.2666 16.9334 20.3 16.8 20.3C16.5334 20.3 16.2667 20.1666 16 19.9C15.7333 19.5666 15.6 19.2333 15.6 18.9C15.6 18.7 15.6333 18.5666 15.7 18.5ZM16.9 20.1C16.9667 19.9666 17 19.8333 17 19.7C17 19.4333 16.9 19.2 16.7 19C16.5 18.8 16.2667 18.6666 16 18.6C16.4 18.9333 16.7 19.4333 16.9 20.1ZM11.5 20.1C11.8333 20.5 12.2333 20.7 12.7 20.7C12.9667 20.7 13.2333 20.6 13.5 20.4C13.2333 20.7333 12.8667 20.9 12.4 20.9C11.8 20.9 11.2333 20.6333 10.7 20.1L0 19.3V19.2L10.8 18.4C10.8667 19.0666 11.1 19.6333 11.5 20.1ZM11.8 18.5C11.9334 18.3666 12.0667 18.3 12.2 18.3C12.4 18.3 12.6 18.3666 12.8 18.5C13 18.7 13.1667 18.9 13.3 19.1C13.3667 19.3 13.4 19.5 13.4 19.7C13.4 19.9 13.3667 20.0666 13.3 20.2C13.1667 20.2666 13.0334 20.3 12.9 20.3C12.6334 20.3 12.3667 20.1666 12.1 19.9C11.8333 19.5666 11.7 19.2333 11.7 18.9C11.7 18.7 11.7334 18.5666 11.8 18.5ZM13 20.1C13.1333 19.9666 13.2 19.8333 13.2 19.7C13.2 19.4333 13.0667 19.2 12.8 19C12.6 18.8 12.3667 18.6666 12.1 18.6C12.5 18.9333 12.8 19.4333 13 20.1ZM2.90002 19.3H10.2C10.1333 19.2333 10.0667 19.1 10 18.9L2.90002 19.3Z" fill="#DDBA5F"/>
<path fill-rule="evenodd" clip-rule="evenodd" d="M177.4 25.9C177 25.5 176.7 25.1333 176.5 24.8C176.367 24.4667 176.3 24.1333 176.3 23.8C176.3 23.5333 176.333 23.3333 176.4 23.2C176.467 23.0666 176.567 22.9 176.7 22.7C176.633 22.9666 176.6 23.1667 176.6 23.3C176.6 23.9 176.867 24.4333 177.4 24.9C178 25.3667 178.733 25.6333 179.6 25.7L178.4 38H178.2L177.4 25.9ZM178.4 26.4C178.267 26.3333 178.167 26.3 178.1 26.3C178.033 26.2333 177.967 26.2 177.9 26.2L178.4 34.8V26.4ZM176.9 17.6C176.767 17.8667 176.7 18.1667 176.7 18.5C176.7 18.9 176.8 19.2333 177 19.5C177.267 19.8333 177.767 20.2667 178.5 20.8C179.167 21.2667 179.667 21.7 180 22.1C180.267 22.5 180.4 22.9333 180.4 23.4C180.4 23.8667 180.233 24.2333 179.9 24.5C180.033 24.2333 180.1 23.9666 180.1 23.7C180.167 23.3 180.067 22.9666 179.8 22.7C179.6 22.4333 179.133 22.0333 178.4 21.5C177.667 20.9667 177.133 20.5 176.8 20.1C176.467 19.6333 176.3 19.2 176.3 18.8C176.3 18.3333 176.5 17.9333 176.9 17.6ZM177.9 22.2C178.367 22.2 178.767 22.3666 179.1 22.7C179.5 22.9666 179.7 23.2667 179.7 23.6C179.7 23.8 179.633 23.9667 179.5 24.1C179.367 24.2333 179.2 24.3 179 24.3C178.533 24.3 178.1 24.1333 177.7 23.8C177.3 23.5333 177.1 23.2333 177.1 22.9C177.1 22.7 177.167 22.5333 177.3 22.4C177.433 22.2667 177.633 22.2 177.9 22.2ZM177.5 22.7C177.567 23.0333 177.733 23.3333 178 23.6C178.267 23.8 178.567 23.9 178.9 23.9C179.1 23.9 179.267 23.8333 179.4 23.7C178.533 23.5 177.9 23.1666 177.5 22.7ZM176.9 13.1C176.767 13.4333 176.7 13.7667 176.7 14.1C176.7 14.4333 176.8 14.7667 177 15.1C177.267 15.3667 177.767 15.7667 178.5 16.3C179.167 16.8333 179.667 17.3 180 17.7C180.267 18.1 180.4 18.5 180.4 18.9C180.4 19.3667 180.233 19.7667 179.9 20.1C180.033 19.7667 180.1 19.4666 180.1 19.2C180.167 18.8666 180.067 18.5667 179.8 18.3C179.6 18.0333 179.133 17.6333 178.4 17.1C177.667 16.5667 177.133 16.0667 176.8 15.6C176.467 15.2 176.3 14.8 176.3 14.4C176.3 13.8667 176.5 13.4333 176.9 13.1ZM177.9 17.8C178.367 17.8 178.767 17.9333 179.1 18.2C179.5 18.5333 179.7 18.8666 179.7 19.2C179.7 19.3333 179.633 19.4667 179.5 19.6C179.367 19.7333 179.2 19.8 179 19.8C178.533 19.8 178.1 19.6667 177.7 19.4C177.3 19.0667 177.1 18.7333 177.1 18.4C177.1 18.2 177.167 18.0667 177.3 18C177.433 17.8667 177.633 17.8 177.9 17.8ZM177.5 18.3C177.567 18.5667 177.733 18.8333 178 19.1C178.267 19.3667 178.567 19.5 178.9 19.5C179.1 19.5 179.267 19.4333 179.4 19.3C178.533 19.1 177.9 18.7667 177.5 18.3ZM177.2 12.4L178.2 0H178.4L179.4 12.2C180.133 12.8 180.5 13.4666 180.5 14.2C180.5 14.6666 180.3 15.1 179.9 15.5C180.1 15.1 180.2 14.7667 180.2 14.5C180.2 13.9667 179.933 13.5 179.4 13.1C178.8 12.7 178.067 12.4667 177.2 12.4ZM177.9 13.3C178.367 13.3 178.767 13.4667 179.1 13.8C179.5 14.0667 179.7 14.3666 179.7 14.7C179.7 14.9 179.633 15.0666 179.5 15.2C179.367 15.2666 179.2 15.3 179 15.3C178.667 15.3 178.367 15.2333 178.1 15.1C177.833 14.9667 177.6 14.8 177.4 14.6C177.2 14.4 177.1 14.1667 177.1 13.9C177.1 13.7667 177.167 13.6333 177.3 13.5C177.433 13.3667 177.633 13.3 177.9 13.3ZM177.5 13.8C177.567 14.1333 177.733 14.4333 178 14.7C178.267 14.9 178.567 15 178.9 15C179.1 15 179.267 14.9333 179.4 14.8C178.533 14.6 177.9 14.2667 177.5 13.8ZM177.8 11.4C178.067 11.4667 178.267 11.5666 178.4 11.7V3.29999L177.8 11.4Z" fill="#DDBA5F"/>
<path fill-rule="evenodd" clip-rule="evenodd" d="M185.1 12.5C184.833 12.5667 184.633 12.6667 184.5 12.8C184.3 13 184.167 13.2334 184.1 13.5C184.1 13.7667 184.133 14.1667 184.2 14.7C184.267 15.3 184.267 15.7667 184.2 16.1C184.133 16.4334 184 16.7 183.8 16.9C183.533 17.1 183.233 17.2 182.9 17.2C183.167 17.1333 183.367 17.0334 183.5 16.9C183.7 16.7 183.8 16.5 183.8 16.3C183.867 16.1 183.867 15.7 183.8 15.1C183.733 14.5 183.733 14 183.8 13.6C183.8 13.2667 183.933 13 184.2 12.8C184.4 12.5334 184.7 12.4334 185.1 12.5ZM183.1 15.2C183.367 15.4 183.5 15.6667 183.5 16C183.567 16.2667 183.5 16.5 183.3 16.7C183.233 16.7667 183.133 16.8 183 16.8C182.867 16.8 182.733 16.7667 182.6 16.7C182.4 16.4333 182.267 16.1667 182.2 15.9C182.2 15.5667 182.3 15.3 182.5 15.1C182.567 15.0334 182.667 15 182.8 15C182.933 15 183.033 15.0667 183.1 15.2ZM182.7 15.3C182.567 15.4334 182.5 15.6334 182.5 15.9C182.5 16.1 182.6 16.3 182.8 16.5C182.867 16.5667 182.967 16.6 183.1 16.6C182.767 16.0667 182.633 15.6334 182.7 15.3ZM187.5 10.3C187.233 10.3667 187 10.4667 186.8 10.6C186.6 10.8 186.5 11.0334 186.5 11.3C186.433 11.5667 186.433 12 186.5 12.6C186.567 13.1334 186.567 13.5667 186.5 13.9C186.433 14.2334 186.3 14.5 186.1 14.7C185.9 14.9 185.6 15 185.2 15C185.467 14.9334 185.667 14.8333 185.8 14.7C186 14.5667 186.133 14.3667 186.2 14.1C186.2 13.9 186.167 13.5 186.1 12.9C186.033 12.3 186.033 11.8 186.1 11.4C186.167 11.0667 186.3 10.8 186.5 10.6C186.767 10.3334 187.1 10.2334 187.5 10.3ZM185.5 13C185.7 13.2 185.8 13.4667 185.8 13.8C185.867 14.1334 185.8 14.3667 185.6 14.5C185.533 14.5667 185.433 14.6 185.3 14.6C185.167 14.6 185.033 14.5667 184.9 14.5C184.7 14.3 184.6 14.0333 184.6 13.7C184.533 13.3667 184.6 13.1 184.8 12.9C184.867 12.8334 184.967 12.8 185.1 12.8C185.233 12.8 185.367 12.8667 185.5 13ZM185 13.1C184.867 13.2334 184.8 13.4333 184.8 13.7C184.867 13.9667 184.967 14.1667 185.1 14.3C185.167 14.3667 185.267 14.4 185.4 14.4C185.133 13.9334 185 13.5 185 13.1ZM188 10L195 4.40002L195.1 4.50003L189.1 10.9C189.167 11.5667 189 12.0667 188.6 12.4C188.333 12.6667 188.033 12.8 187.7 12.8C187.967 12.6667 188.167 12.5334 188.3 12.4C188.567 12.1334 188.7 11.8 188.7 11.4C188.633 10.9334 188.4 10.4667 188 10ZM187.8 10.8C188 11 188.133 11.2667 188.2 11.6C188.2 11.9334 188.133 12.1667 188 12.3C187.867 12.4334 187.733 12.4667 187.6 12.4C187.467 12.4 187.367 12.3667 187.3 12.3C187.167 12.1667 187.067 12 187 11.8C186.933 11.6 186.9 11.4 186.9 11.2C186.9 11 186.967 10.8667 187.1 10.8C187.233 10.6667 187.367 10.6 187.5 10.6C187.567 10.6667 187.667 10.7334 187.8 10.8ZM187.4 10.9C187.267 11.0334 187.2 11.2334 187.2 11.5C187.2 11.7667 187.267 11.9667 187.4 12.1C187.533 12.1667 187.667 12.2 187.8 12.2C187.467 11.7333 187.333 11.3 187.4 10.9ZM188.8 9.90002C188.867 10.0334 188.9 10.1333 188.9 10.2L193.3 6.20001L188.8 9.90002Z" fill="#DDBA5F"/>
<path fill-rule="evenodd" clip-rule="evenodd" d="M184.2 27.0001C183.933 26.8001 183.8 26.5334 183.8 26.2001C183.733 25.8001 183.733 25.3001 183.8 24.7001C183.867 24.1001 183.867 23.7001 183.8 23.5001C183.8 23.2334 183.7 23.0334 183.5 22.9001C183.367 22.7667 183.167 22.6667 182.9 22.6001C183.233 22.5334 183.533 22.6334 183.8 22.9001C184 23.1001 184.133 23.3667 184.2 23.7001C184.267 24.0334 184.267 24.4667 184.2 25.0001C184.133 25.6001 184.1 26.0334 184.1 26.3001C184.167 26.5667 184.3 26.8001 184.5 27.0001C184.633 27.1334 184.833 27.2334 185.1 27.3001C184.7 27.3667 184.4 27.2667 184.2 27.0001ZM182.8 24.8001C182.667 24.8001 182.567 24.7334 182.5 24.6001C182.3 24.4667 182.2 24.2334 182.2 23.9001C182.267 23.5667 182.4 23.3001 182.6 23.1001C182.733 23.0334 182.867 23.0001 183 23.0001C183.133 23.0001 183.233 23.0334 183.3 23.1001C183.5 23.2334 183.567 23.4667 183.5 23.8001C183.5 24.1334 183.367 24.4001 183.1 24.6001C183.033 24.7334 182.933 24.8001 182.8 24.8001ZM183.1 23.2001C182.967 23.2001 182.867 23.2334 182.8 23.3001C182.6 23.4334 182.5 23.6334 182.5 23.9001C182.5 24.1667 182.567 24.3667 182.7 24.5001C182.633 24.1001 182.767 23.6667 183.1 23.2001ZM186.5 29.2001C186.3 29.0001 186.167 28.7001 186.1 28.3001C186.033 27.9667 186.033 27.5001 186.1 26.9001C186.167 26.3001 186.2 25.9001 186.2 25.7001C186.133 25.4334 186 25.2334 185.8 25.1001C185.667 24.9667 185.467 24.8667 185.2 24.8001C185.6 24.7334 185.9 24.8334 186.1 25.1001C186.3 25.3001 186.433 25.5667 186.5 25.9001C186.567 26.2334 186.567 26.6667 186.5 27.2001C186.433 27.8001 186.433 28.2334 186.5 28.5001C186.5 28.7667 186.6 29.0001 186.8 29.2001C187 29.3334 187.233 29.4334 187.5 29.5001C187.1 29.5001 186.767 29.4001 186.5 29.2001ZM185.1 27.0001C184.967 27.0001 184.867 26.9334 184.8 26.8001C184.6 26.6667 184.533 26.4334 184.6 26.1001C184.6 25.7667 184.7 25.5001 184.9 25.3001C185.033 25.1667 185.167 25.1001 185.3 25.1001C185.433 25.1001 185.533 25.1667 185.6 25.3001C185.8 25.4334 185.867 25.6667 185.8 26.0001C185.8 26.3334 185.7 26.6001 185.5 26.8001C185.367 26.8667 185.233 26.9334 185.1 27.0001ZM185.4 25.4001C185.267 25.4001 185.167 25.4334 185.1 25.5001C184.967 25.6334 184.867 25.8334 184.8 26.1001C184.8 26.3667 184.867 26.5667 185 26.7001C185 26.3001 185.133 25.8667 185.4 25.4001ZM188.7 28.4001C188.7 27.9334 188.567 27.5667 188.3 27.3001C188.167 27.1667 187.967 27.0667 187.7 27.0001C188.033 27.0001 188.333 27.1334 188.6 27.4001C189 27.7334 189.167 28.2334 189.1 28.9001L195.1 35.2001L195 35.3001L188 29.7001C188.4 29.3001 188.633 28.8667 188.7 28.4001ZM187.5 29.1001C187.367 29.1667 187.233 29.1334 187.1 29.0001C186.967 28.8667 186.9 28.7334 186.9 28.6001C186.9 28.4001 186.933 28.2001 187 28.0001C187.067 27.8001 187.167 27.6334 187.3 27.5001C187.367 27.3667 187.467 27.3001 187.6 27.3001C187.733 27.3001 187.867 27.3667 188 27.5001C188.133 27.6334 188.2 27.8667 188.2 28.2001C188.133 28.5334 188 28.8001 187.8 29.0001C187.667 29.0667 187.567 29.1001 187.5 29.1001ZM187.8 27.5001C187.667 27.5001 187.533 27.5667 187.4 27.7001C187.267 27.8334 187.2 28.0334 187.2 28.3001C187.2 28.5667 187.267 28.7667 187.4 28.9001C187.333 28.5001 187.467 28.0334 187.8 27.5001ZM193.3 33.6001L188.9 29.5001C188.9 29.6334 188.867 29.7667 188.8 29.9001L193.3 33.6001Z" fill="#DDBA5F"/>
<path fill-rule="evenodd" clip-rule="evenodd" d="M172.5 12.8C172.767 13 172.933 13.2667 173 13.6C173 14 172.967 14.5 172.9 15.1C172.833 15.7 172.833 16.1 172.9 16.3C172.9 16.5 173 16.7 173.2 16.9C173.333 17.0334 173.533 17.1333 173.8 17.2C173.467 17.2 173.167 17.1 172.9 16.9C172.7 16.7 172.567 16.4334 172.5 16.1C172.433 15.7667 172.433 15.3 172.5 14.7C172.567 14.1667 172.6 13.7667 172.6 13.5C172.533 13.2334 172.4 13 172.2 12.8C172.067 12.6667 171.867 12.5667 171.6 12.5C172 12.4334 172.3 12.5334 172.5 12.8ZM173.9 15C174.033 15 174.167 15.0334 174.3 15.1C174.433 15.3 174.5 15.5667 174.5 15.9C174.433 16.1667 174.3 16.4333 174.1 16.7C173.967 16.7667 173.833 16.8 173.7 16.8C173.567 16.8 173.467 16.7667 173.4 16.7C173.2 16.5 173.133 16.2667 173.2 16C173.267 15.6667 173.4 15.4 173.6 15.2C173.733 15.0667 173.833 15 173.9 15ZM173.6 16.6C173.733 16.6 173.833 16.5667 173.9 16.5C174.1 16.3 174.2 16.1 174.2 15.9C174.2 15.6334 174.133 15.4334 174 15.3C174.067 15.6334 173.933 16.0667 173.6 16.6ZM170.2 10.6C170.4 10.8 170.533 11.0667 170.6 11.4C170.667 11.8 170.667 12.3 170.6 12.9C170.533 13.5 170.5 13.9 170.5 14.1C170.567 14.3667 170.7 14.5667 170.9 14.7C171.033 14.8333 171.233 14.9334 171.5 15C171.167 15 170.867 14.9 170.6 14.7C170.4 14.5 170.267 14.2334 170.2 13.9C170.133 13.5667 170.133 13.1334 170.2 12.6C170.267 12 170.267 11.5667 170.2 11.3C170.2 11.0334 170.1 10.8 169.9 10.6C169.7 10.4667 169.5 10.3667 169.3 10.3C169.633 10.2334 169.933 10.3334 170.2 10.6ZM171.6 12.8C171.733 12.8 171.833 12.8334 171.9 12.9C172.1 13.1 172.167 13.3667 172.1 13.7C172.1 14.0333 172 14.3 171.8 14.5C171.667 14.5667 171.533 14.6 171.4 14.6C171.267 14.6 171.167 14.5667 171.1 14.5C170.9 14.3667 170.833 14.1334 170.9 13.8C170.9 13.4667 171 13.2 171.2 13C171.333 12.8667 171.467 12.8 171.6 12.8ZM171.3 14.4C171.433 14.4 171.533 14.3667 171.6 14.3C171.8 14.1667 171.9 13.9667 171.9 13.7C171.9 13.4333 171.833 13.2334 171.7 13.1C171.767 13.5 171.633 13.9334 171.3 14.4ZM168.1 11.4C168.033 11.8 168.133 12.1334 168.4 12.4C168.533 12.5334 168.767 12.6667 169.1 12.8C168.7 12.8 168.367 12.6667 168.1 12.4C167.7 12.0667 167.533 11.5667 167.6 10.9L161.7 4.50003L161.8 4.40002L168.7 10C168.3 10.4667 168.1 10.9334 168.1 11.4ZM169.3 10.6C169.367 10.6 169.467 10.6667 169.6 10.8C169.733 10.8667 169.8 11 169.8 11.2C169.8 11.4 169.8 11.6 169.8 11.8C169.733 12 169.6 12.1667 169.4 12.3C169.333 12.3667 169.233 12.4 169.1 12.4C168.967 12.4667 168.833 12.4334 168.7 12.3C168.567 12.1667 168.5 11.9334 168.5 11.6C168.567 11.2667 168.7 11 168.9 10.8C169.033 10.7334 169.167 10.6667 169.3 10.6ZM168.9 12.2C169.1 12.2 169.233 12.1667 169.3 12.1C169.433 11.9667 169.5 11.7667 169.5 11.5C169.567 11.2334 169.5 11.0334 169.3 10.9C169.367 11.3 169.233 11.7333 168.9 12.2ZM163.4 6.20001L167.8 10.2C167.8 10.1333 167.833 10.0334 167.9 9.90002L163.4 6.20001Z" fill="#DDBA5F"/>
<path fill-rule="evenodd" clip-rule="evenodd" d="M171.6 27.3001C171.867 27.2334 172.067 27.1334 172.2 27.0001C172.4 26.8001 172.533 26.5667 172.6 26.3001C172.6 26.0334 172.567 25.6001 172.5 25.0001C172.433 24.4667 172.433 24.0334 172.5 23.7001C172.567 23.3667 172.7 23.1001 172.9 22.9001C173.167 22.6334 173.467 22.5334 173.8 22.6001C173.533 22.6667 173.333 22.7667 173.2 22.9001C173 23.0334 172.9 23.2334 172.9 23.5001C172.833 23.7001 172.833 24.1001 172.9 24.7001C172.967 25.3001 173 25.8001 173 26.2001C172.933 26.5334 172.767 26.8001 172.5 27.0001C172.3 27.2667 172 27.3667 171.6 27.3001ZM173.6 24.6001C173.4 24.4001 173.267 24.1334 173.2 23.8001C173.133 23.4667 173.2 23.2334 173.4 23.1001C173.467 23.0334 173.567 23.0001 173.7 23.0001C173.833 23.0001 173.967 23.0334 174.1 23.1001C174.3 23.3001 174.433 23.5667 174.5 23.9001C174.5 24.2334 174.433 24.5001 174.3 24.7001C174.167 24.7667 174.033 24.8001 173.9 24.8001C173.833 24.8001 173.733 24.7334 173.6 24.6001ZM174 24.5001C174.133 24.3667 174.2 24.1667 174.2 23.9001C174.2 23.6334 174.1 23.4334 173.9 23.3001C173.833 23.2334 173.733 23.2001 173.6 23.2001C173.933 23.6667 174.067 24.1001 174 24.5001ZM169.3 29.5001C169.5 29.4334 169.7 29.3334 169.9 29.2001C170.1 29.0001 170.2 28.7667 170.2 28.5001C170.267 28.2334 170.267 27.8001 170.2 27.2001C170.133 26.6667 170.133 26.2334 170.2 25.9001C170.267 25.5667 170.4 25.3001 170.6 25.1001C170.867 24.8334 171.167 24.7334 171.5 24.8001C171.233 24.8667 171.033 24.9667 170.9 25.1001C170.7 25.2334 170.567 25.4334 170.5 25.7001C170.5 25.9001 170.533 26.3001 170.6 26.9001C170.667 27.5001 170.667 27.9667 170.6 28.3001C170.533 28.7001 170.4 29.0001 170.2 29.2001C169.933 29.4001 169.633 29.5001 169.3 29.5001ZM171.2 26.8001C171 26.6001 170.9 26.3334 170.9 26.0001C170.833 25.6667 170.9 25.4334 171.1 25.3001C171.167 25.1667 171.267 25.1001 171.4 25.1001C171.533 25.1001 171.667 25.1667 171.8 25.3001C172 25.5001 172.1 25.7667 172.1 26.1001C172.167 26.4334 172.1 26.6667 171.9 26.8001C171.833 26.9334 171.733 27.0001 171.6 27.0001C171.467 26.9334 171.333 26.8667 171.2 26.8001ZM171.7 26.7001C171.833 26.5667 171.9 26.3667 171.9 26.1001C171.9 25.8334 171.8 25.6334 171.6 25.5001C171.533 25.4334 171.433 25.4001 171.3 25.4001C171.633 25.8667 171.767 26.3001 171.7 26.7001ZM168.7 29.7001L161.8 35.3001L161.7 35.2001L167.6 28.9001C167.533 28.2334 167.7 27.7334 168.1 27.4001C168.367 27.1334 168.7 27.0001 169.1 27.0001C168.767 27.0667 168.533 27.1667 168.4 27.3001C168.133 27.5667 168.033 27.9334 168.1 28.4001C168.1 28.8667 168.3 29.3001 168.7 29.7001ZM168.9 29.0001C168.7 28.8001 168.567 28.5334 168.5 28.2001C168.5 27.8667 168.567 27.6334 168.7 27.5001C168.833 27.3667 168.967 27.3001 169.1 27.3001C169.233 27.3001 169.333 27.3667 169.4 27.5001C169.6 27.6334 169.733 27.8001 169.8 28.0001C169.8 28.2001 169.8 28.4001 169.8 28.6001C169.8 28.7334 169.733 28.8667 169.6 29.0001C169.467 29.1334 169.367 29.1667 169.3 29.1001C169.167 29.1001 169.033 29.0667 168.9 29.0001ZM169.3 28.9001C169.5 28.7667 169.567 28.5667 169.5 28.3001C169.5 28.0334 169.433 27.8334 169.3 27.7001C169.233 27.5667 169.1 27.5001 168.9 27.5001C169.233 28.0334 169.367 28.5001 169.3 28.9001ZM167.9 29.9001C167.833 29.7667 167.8 29.6334 167.8 29.5001L163.4 33.6001L167.9 29.9001Z" fill="#DDBA5F"/>
<path fill-rule="evenodd" clip-rule="evenodd" d="M317.5 20.2C317.367 20.2 317.233 20.2 317.1 20.2C297.3 22.4 277.6 23.5 257.9 20.4C257.567 20.4 257.267 20.3667 257 20.3C253.133 20.8334 249.3 21.3334 245.5 21.8C225.3 24.5 202.7 27.3 183.2 20.2C182.8 20 182.9 19.8 183.2 19.6C183.2 19.5334 183.233 19.5 183.3 19.5C183.7 19.2 184.5 18.9 185.1 18.7C204 12.2 225.6 14.3 245 16.9C249.2 17.4 253.4 18.1 257.6 18.6C278.5 15.6 298.9 16.3 319.8 18.7C321.7 18.9 318.5 20.4 317.5 20.2ZM251.8 19.5C230.9 16.2 207.3 12.5 187.2 19.1C207.4 26.1 230.8 22.7 251.8 19.5ZM311.9 19.6C302.6 18.6 293.3 17.9 283.9 18C277.1 18.1 270.4 18.7 263.6 19.5C271 20.4 278.3 21.1 285.8 21.1C294.5 21.1 303.2 20.5 311.9 19.6Z" fill="#DDBA5F"/>
<path fill-rule="evenodd" clip-rule="evenodd" d="M173.7 19.1C173.9 19.3 173.7 19.6 172.8 20C153.1 27.2 130.2 24.6 109.9 21.9C106.033 21.3667 102.167 20.8 98.3 20.2C97.9 20.2667 97.5 20.3333 97.1 20.4C77.2 23.2 57.8 22.4 37.9 20.2C37.9 20.2 37.8667 20.2 37.8 20.2C37.1 20.3 36.8 20.2 36.6 20.1C36.5333 20.0333 36.5 19.9667 36.5 19.9C36.5 19.5 37.4 18.8 38.4 18.7C59.3 16.3 79.9 15.5 100.7 18.6C105 18.1 109.2 17.5 113.5 16.9C133.1 14.4 154.9 12 173.8 18.9C173.8 18.9 173.767 18.9667 173.7 19.1ZM93.4 19.6C86.1 18.7 78.8 18 71.4 18C62.6 18 53.9 18.6 45.2 19.4C54.5 20.4 63.9 21.2 73.3 21.1C80.1 21.1 86.7 20.4 93.4 19.6ZM169.4 19.6C149.1 12.6 126 16.1 104.9 19.3C125.6 22.5 149.3 26.2 169.4 19.6Z" fill="#DDBA5F"/>
</svg>
