<svg width="700" height="276" viewBox="0 0 700 276" fill="none" xmlns="http://www.w3.org/2000/svg">
<path d="M196.405 113.089C196.405 116.397 195.138 119.499 192.605 122.393C190.204 125.184 187.004 127.459 183.004 129.216C179.137 130.87 174.937 131.697 170.404 131.697C168.671 131.697 167.337 131.594 166.404 131.387C165.604 131.077 164.804 130.612 164.004 129.991C161.87 128.544 160.804 127.459 160.804 126.735C160.804 126.425 161.337 126.528 162.404 127.045C162.937 127.355 164.27 127.665 166.404 127.976C168.537 128.286 170.071 128.441 171.004 128.441C176.337 128.441 180.538 127.2 183.604 124.719C186.804 122.135 188.404 118.775 188.404 114.64C188.404 112.262 187.204 110.918 184.804 110.608C182.538 110.298 179.871 110.143 176.804 110.143C174.004 110.143 171.537 110.867 169.404 112.314C167.27 113.761 165.404 115.467 163.804 117.431C162.337 119.292 161.004 120.894 159.804 122.238C155.27 126.993 151.47 131.542 148.403 135.884C145.47 140.123 142.003 144.878 138.003 150.15C136.136 152.631 133.67 155.526 130.603 158.834C127.669 162.142 124.269 164.985 120.403 167.363C123.736 170.878 127.069 174.547 130.403 178.372C133.736 182.197 137.27 185.247 141.003 187.521C142.47 188.452 144.47 190.054 147.003 192.328C149.67 194.603 152.537 197.032 155.604 199.617C158.804 202.201 161.937 204.424 165.004 206.285C168.204 208.145 171.071 209.076 173.604 209.076C175.204 209.076 176.471 208.766 177.404 208.145C178.471 207.525 179.337 206.853 180.004 206.129C180.671 205.509 181.404 205.199 182.204 205.199C182.871 205.199 183.471 205.406 184.004 205.819C184.671 206.336 185.004 206.853 185.004 207.37C185.004 207.783 184.738 208.197 184.204 208.611C183.004 209.644 181.604 210.42 180.004 210.937C178.404 211.557 176.271 211.867 173.604 211.867C169.871 211.867 166.47 210.988 163.404 209.231C160.337 207.473 157.537 205.509 155.003 203.338C152.47 201.167 150.137 199.462 148.003 198.221C144.537 196.153 140.803 193.672 136.803 190.778C132.803 187.78 128.869 184.73 125.003 181.629C121.269 178.424 117.936 175.633 115.002 173.255C114.736 172.945 114.402 172.635 114.002 172.325C113.602 171.911 113.269 171.498 113.002 171.084C110.736 171.808 108.336 172.17 105.802 172.17C103.535 172.17 101.469 171.963 99.6019 171.549C97.7352 171.033 96.0685 170.412 94.6018 169.689C93.9351 171.549 93.2684 173.41 92.6017 175.271C92.0684 177.132 91.535 178.838 91.0017 180.388C90.335 182.352 89.4017 184.42 88.2016 186.591C87.1349 188.659 86.1349 190.623 85.2015 192.484C83.7348 195.378 82.5348 197.704 81.6014 199.462C80.6681 201.219 79.668 202.718 78.6014 203.958C77.5347 205.199 76.2013 206.491 74.6012 207.835C73.0012 209.179 70.8678 210.885 68.2011 212.952C66.0677 214.606 63.2676 216.002 59.8008 217.139C56.3341 218.38 52.6673 219 48.8005 219C46.5338 219 44.6004 218.225 43.0004 216.674C41.5337 215.123 40.3336 213.263 39.4003 211.092C38.6002 209.024 38.0002 207.215 37.6002 205.664C37.4669 204.837 37.3335 204.114 37.2002 203.493C37.2002 202.873 37.2002 202.356 37.2002 201.943C37.2002 200.082 37.6669 199.151 38.6002 199.151C39.2669 199.151 39.9336 199.462 40.6003 200.082C41.267 200.702 41.667 201.374 41.8003 202.098C42.067 203.131 42.467 204.63 43.0004 206.595C43.5337 208.662 44.2671 210.523 45.2004 212.177C46.1338 213.934 47.3338 214.813 48.8005 214.813C51.8673 214.813 54.2673 214.09 56.0007 212.642C57.8674 211.298 59.6008 210.006 61.2009 208.766C63.7343 206.801 65.7343 205.199 67.201 203.958C68.6677 202.821 69.8678 201.684 70.8011 200.547C71.7345 199.41 72.6679 198.014 73.6012 196.36C74.5346 194.706 75.7346 192.484 77.2013 189.692C78.1347 187.935 79.068 186.022 80.0014 183.955C80.9348 181.784 81.7348 179.716 82.4015 177.752C83.3348 175.374 84.2682 173.048 85.2015 170.774C86.1349 168.5 87.1349 166.225 88.2016 163.951C88.0683 163.641 87.8683 163.331 87.6016 163.021C87.4683 162.607 87.2683 162.194 87.0016 161.78C87.0016 161.78 86.8016 161.315 86.4016 160.385C86.0016 159.351 85.8016 158.317 85.8016 157.283C85.8016 156.043 86.2016 155.112 87.0016 154.492C87.6683 153.975 88.8683 153.717 90.6017 153.717C91.0017 153.717 91.4017 153.717 91.8017 153.717C92.2017 153.717 92.6017 153.768 93.0017 153.872C95.4018 148.703 97.6019 143.534 99.6019 138.365C101.602 133.093 102.602 126.993 102.602 120.067C102.602 113.554 101.202 108.437 98.4019 104.716C95.6018 100.891 89.8683 98.978 81.2014 98.978C74.1346 98.978 68.6011 99.7017 64.601 101.149C60.7342 102.493 56.9341 104.612 53.2006 107.507C48.5338 111.022 44.4004 115.105 40.8003 119.757C37.2002 124.409 35.4002 130.457 35.4002 137.9C35.4002 142.655 36.7335 146.584 39.4003 149.685C42.2003 152.683 45.4671 155.216 49.2005 157.283C49.6005 157.49 50.3339 157.904 51.4006 158.524C52.6006 159.041 53.734 159.558 54.8007 160.074C56.0007 160.488 56.8007 160.695 57.2008 160.695C64.6676 160.695 71.0011 158.886 76.2013 155.267C81.4014 151.649 84.0015 146.945 84.0015 141.156C84.0015 139.399 83.4015 137.641 82.2015 135.884C81.1348 134.127 79.7347 132.731 78.0013 131.697C76.268 130.56 74.5346 130.043 72.8012 130.147C68.4011 130.457 66.201 130.043 66.201 128.906C66.201 128.286 67.001 127.665 68.6011 127.045C70.3345 126.322 72.3345 125.96 74.6012 125.96C75.1346 125.96 75.6013 125.96 76.0013 125.96C76.5346 125.96 77.068 126.011 77.6013 126.115C81.0681 126.632 83.8015 128.389 85.8016 131.387C87.8016 134.282 88.8016 137.538 88.8016 141.156C88.8016 145.705 87.1349 149.737 83.8015 153.252C80.4681 156.663 76.1346 159.299 70.8011 161.16C65.601 163.021 60.0008 163.951 54.0007 163.951C53.0673 163.951 51.7339 163.538 50.0006 162.711C48.2672 161.884 46.9338 161.212 46.0004 160.695C41.867 158.11 38.1336 155.061 34.8001 151.546C31.6 148.031 30 143.482 30 137.9C30 132.524 30.8667 127.872 32.6001 123.944C34.4668 119.912 36.8669 116.346 39.8003 113.244C42.867 110.143 46.1338 107.248 49.6005 104.56C53.8673 101.252 58.6675 98.3577 64.0009 95.8767C69.4678 93.2922 76.1346 92 84.0015 92C90.935 92 96.0685 93.2922 99.4019 95.8767C102.869 98.3577 105.135 101.718 106.202 105.956C107.402 110.195 108.002 114.898 108.002 120.067C108.002 125.339 107.802 129.836 107.402 133.558C107.002 137.28 106.269 140.794 105.202 144.103C104.135 147.307 102.669 150.822 100.802 154.647C100.802 154.751 100.735 154.854 100.602 154.957C100.469 154.957 100.402 155.061 100.402 155.267C103.069 155.888 105.002 156.353 106.202 156.663C107.402 156.87 108.536 157.283 109.602 157.904C110.802 158.524 112.469 159.816 114.602 161.78C115.269 162.194 115.802 162.607 116.202 163.021C116.602 163.331 117.069 163.693 117.602 164.106C121.069 161.832 124.003 158.937 126.403 155.422C128.803 151.908 130.936 149.013 132.803 146.739C136.936 141.466 140.736 136.091 144.203 130.612C147.67 125.133 151.603 120.015 156.004 115.26C157.47 113.606 159.27 111.694 161.404 109.523C163.67 107.352 166.204 105.439 169.004 103.785C171.937 102.028 175.071 101.149 178.404 101.149C182.938 101.149 187.071 102.234 190.804 104.405C194.538 106.576 196.405 109.471 196.405 113.089ZM109.802 167.673C108.469 165.915 106.935 164.313 105.202 162.866C103.602 161.418 101.402 160.281 98.6019 159.454C98.2019 160.281 97.8019 161.212 97.4019 162.245C97.0019 163.279 96.6019 164.313 96.2018 165.347C98.7352 167.104 101.935 167.983 105.802 167.983C106.469 167.983 107.135 167.983 107.802 167.983C108.469 167.88 109.136 167.776 109.802 167.673Z" fill="#DC8850"/>
<path d="M214.996 188.917C211.529 192.122 208.529 194.344 205.996 195.585C203.462 196.825 201.262 197.446 199.395 197.446C196.995 197.446 194.929 196.722 193.195 195.275C191.595 193.724 190.195 192.07 188.995 190.313C187.928 188.555 187.062 187.315 186.395 186.591C183.862 188.348 180.861 190.209 177.395 192.173C173.928 194.034 171.061 194.965 168.794 194.965C164.528 194.965 161.194 194.138 158.794 192.484C156.394 190.726 155.194 188.193 155.194 184.885C155.194 181.474 155.727 177.442 156.794 172.79C157.994 168.138 159.461 163.538 161.194 158.989C162.928 154.337 164.594 150.46 166.194 147.359C166.594 146.429 167.394 145.653 168.594 145.033C169.928 144.413 171.261 144.103 172.595 144.103C174.195 144.103 175.261 144.413 175.795 145.033C176.328 145.653 176.595 146.377 176.595 147.204C176.595 148.238 176.328 149.271 175.795 150.305C175.395 151.236 175.195 151.701 175.195 151.701C173.595 155.216 171.728 158.886 169.594 162.711C167.594 166.536 165.728 170.877 163.994 175.736C163.861 176.357 163.661 177.235 163.394 178.372C163.261 179.51 163.194 180.698 163.194 181.939C163.194 183.696 163.461 185.35 163.994 186.901C164.661 188.348 165.861 189.072 167.594 189.072C169.061 189.072 170.995 188.4 173.395 187.056C175.928 185.712 178.461 183.851 180.995 181.474C183.528 179.096 185.528 176.357 186.995 173.255C188.328 170.464 189.528 167.414 190.595 164.106C191.662 160.798 192.595 157.697 193.395 154.802C194.329 151.804 195.195 149.478 195.995 147.824C196.395 147.101 196.995 146.739 197.795 146.739C198.862 146.739 199.795 147.049 200.595 147.669C201.529 148.289 201.862 148.858 201.595 149.375C201.062 150.409 200.329 152.114 199.395 154.492C198.462 156.87 197.529 159.506 196.595 162.4C195.662 165.295 194.795 168.138 193.995 170.929C193.195 173.617 192.528 175.891 191.995 177.752C191.462 179.613 191.195 180.647 191.195 180.853C191.195 182.404 191.395 183.8 191.795 185.04C192.195 186.281 192.862 187.625 193.795 189.072C194.462 189.899 195.262 190.829 196.195 191.863C197.262 192.794 198.329 193.259 199.395 193.259C201.929 193.259 204.329 192.587 206.596 191.243C208.996 189.796 210.796 188.4 211.996 187.056C212.929 185.919 213.796 185.35 214.596 185.35C215.396 185.35 215.796 185.919 215.796 187.056C215.796 187.883 215.529 188.503 214.996 188.917Z" fill="#DC8850"/>
<path d="M267.819 184.73C266.752 186.591 264.419 188.814 260.819 191.398C257.352 193.983 253.219 196.257 248.419 198.221C243.752 200.082 239.018 201.012 234.218 201.012C227.285 201.012 222.618 199.462 220.218 196.36C217.818 193.155 216.618 188.865 216.618 183.49C216.618 179.871 217.018 175.426 217.818 170.154C218.618 164.882 219.818 159.196 221.418 153.096C223.018 146.997 225.018 140.846 227.418 134.643C229.818 128.751 232.418 123.013 235.218 117.431C238.018 111.849 242.218 106.99 247.819 102.855C248.752 101.718 249.952 101.149 251.419 101.149C252.619 101.149 253.685 101.562 254.619 102.389C255.552 103.113 255.952 103.992 255.819 105.026C255.819 105.026 255.752 106.318 255.619 108.902C255.619 111.487 255.419 114.64 255.019 118.361C254.619 121.98 254.019 125.443 253.219 128.751C252.019 134.333 249.819 140.226 246.619 146.429C243.552 152.631 240.285 158.265 236.818 163.331C234.018 167.569 231.751 170.619 230.018 172.48C228.418 174.341 227.151 175.685 226.218 176.512C225.418 177.339 224.818 178.424 224.418 179.768C224.285 180.492 224.151 181.319 224.018 182.249C224.018 183.076 224.018 183.955 224.018 184.885C224.018 186.746 224.151 188.555 224.418 190.313C224.818 191.967 225.285 193.052 225.818 193.569C227.285 194.706 228.885 195.533 230.618 196.05C232.351 196.567 234.085 196.825 235.818 196.825C237.285 196.825 238.618 196.67 239.818 196.36C244.352 195.326 248.952 193.621 253.619 191.243C258.419 188.865 261.819 186.539 263.819 184.265C264.752 183.231 265.486 182.559 266.019 182.249C266.686 181.836 267.219 181.629 267.619 181.629C268.286 181.629 268.619 181.991 268.619 182.714C268.619 182.921 268.552 183.231 268.419 183.645C268.286 183.955 268.086 184.317 267.819 184.73ZM249.619 111.538C248.285 111.332 246.152 113.606 243.218 118.361C240.418 123.117 237.485 129.578 234.418 137.745C233.485 140.226 232.418 143.379 231.218 147.204C230.151 151.029 229.085 155.009 228.018 159.144C226.951 163.176 226.151 166.846 225.618 170.154C229.885 163.434 233.751 157.387 237.218 152.011C240.685 146.635 243.352 141.621 245.218 136.969C246.952 133.248 248.219 129.268 249.019 125.029C249.952 120.791 250.419 117.431 250.419 114.95C250.419 112.986 250.152 111.849 249.619 111.538Z" fill="#DC8850"/>
<path d="M303.844 136.039C302.91 136.039 301.977 135.936 301.043 135.729C300.243 135.419 299.443 135.057 298.643 134.643C296.91 134.023 296.043 132.679 296.043 130.612C296.043 129.681 296.31 128.648 296.843 127.51C297.51 126.373 298.51 125.288 299.843 124.254C300.777 123.53 301.91 123.169 303.244 123.169C304.444 123.169 305.577 123.53 306.644 124.254C307.177 124.667 307.51 125.339 307.644 126.27C307.91 127.097 308.044 128.027 308.044 129.061C308.044 130.302 307.91 131.542 307.644 132.783C307.377 133.92 306.91 134.747 306.244 135.264C305.31 135.781 304.51 136.039 303.844 136.039ZM283.443 196.98C278.51 196.98 275.109 196.102 273.243 194.344C271.376 192.587 270.443 190.468 270.443 187.987C270.443 186.849 270.576 185.712 270.843 184.575C271.109 183.438 271.443 182.301 271.843 181.164C270.509 183.024 268.443 185.195 265.642 187.676C262.842 190.054 260.242 191.967 257.842 193.414C257.309 193.724 256.776 193.879 256.242 193.879C255.442 193.879 255.042 193.517 255.042 192.794C255.042 191.967 255.442 191.243 256.242 190.623C261.842 186.074 266.109 182.404 269.043 179.613C271.976 176.718 274.243 174.289 275.843 172.325C277.443 170.361 278.976 168.551 280.443 166.897C281.643 163.899 282.71 161.005 283.643 158.214C284.71 155.319 286.31 152.373 288.443 149.375C289.11 148.444 290.443 147.979 292.443 147.979C293.777 147.979 294.977 148.238 296.043 148.755C297.11 149.271 297.643 150.15 297.643 151.391C297.643 152.011 297.443 152.735 297.043 153.562C295.577 156.766 293.977 159.506 292.243 161.78C290.643 163.951 288.51 166.742 285.843 170.154C283.043 173.669 280.776 177.08 279.043 180.388C277.443 183.696 276.643 186.488 276.643 188.762C276.643 190.209 277.043 191.398 277.843 192.328C278.776 193.259 280.11 193.724 281.843 193.724C285.576 193.827 288.443 193.362 290.443 192.328C292.443 191.191 294.11 190.106 295.443 189.072C297.177 187.625 298.643 186.281 299.843 185.04C301.177 183.8 302.377 182.714 303.444 181.784C304.244 181.164 304.644 181.267 304.644 182.094C304.644 182.611 304.444 183.283 304.044 184.11C303.777 184.937 303.444 185.557 303.044 185.971C301.71 187.418 300.11 189.02 298.243 190.778C296.51 192.535 294.443 194.034 292.043 195.275C289.643 196.412 286.776 196.98 283.443 196.98Z" fill="#DC8850"/>
<path d="M337.359 170.464C337.359 172.842 337.092 174.599 336.559 175.736C336.158 176.873 335.558 177.804 334.758 178.527C334.092 179.251 333.358 180.078 332.558 181.009C331.758 181.939 331.092 183.335 330.558 185.195C330.158 186.953 329.958 189.537 329.958 192.949C329.958 194.293 330.625 195.378 331.958 196.205C333.292 197.032 334.825 197.446 336.559 197.446C337.359 197.446 337.759 197.652 337.759 198.066C337.759 198.583 337.225 199.203 336.158 199.927C335.225 200.754 334.358 201.167 333.558 201.167C330.625 201.167 328.492 200.289 327.158 198.531C325.825 196.67 325.158 194.706 325.158 192.639C325.158 189.227 325.292 186.539 325.558 184.575C325.825 182.508 326.092 180.595 326.358 178.838C326.625 176.977 326.692 174.702 326.558 172.015C326.425 170.154 326.092 168.707 325.558 167.673C325.025 166.536 323.625 165.967 321.358 165.967C320.158 165.967 319.291 166.122 318.758 166.432C318.358 166.742 317.825 167.259 317.158 167.983C315.691 169.637 314.425 171.963 313.358 174.961C312.425 177.856 311.624 180.957 310.958 184.265C310.424 187.47 309.891 190.364 309.358 192.949C308.958 195.43 308.558 197.084 308.158 197.911C307.758 198.635 307.224 199.151 306.558 199.462C306.024 199.772 305.424 199.927 304.758 199.927C304.224 199.927 303.691 199.823 303.158 199.617C302.758 199.513 302.424 199.41 302.158 199.306C301.491 198.996 301.158 198.479 301.158 197.756C301.158 197.032 301.358 196.205 301.758 195.275C302.291 194.241 302.691 193.311 302.958 192.484C303.224 191.656 303.624 190.209 304.158 188.142C304.824 185.971 305.491 183.748 306.158 181.474C306.824 179.096 307.358 177.08 307.758 175.426C308.291 173.669 308.558 172.79 308.558 172.79C307.891 172.79 307.224 172.842 306.558 172.945C305.891 172.945 305.224 172.945 304.558 172.945C302.558 172.945 301.558 172.325 301.558 171.084C301.558 170.257 301.958 169.017 302.758 167.363C303.558 165.709 305.024 163.538 307.158 160.85C307.824 160.023 309.158 158.989 311.158 157.748C313.158 156.508 314.825 155.991 316.158 156.198C316.691 155.991 317.158 155.888 317.558 155.888C317.958 155.888 318.291 155.888 318.558 155.888C320.025 155.888 320.825 156.301 320.958 157.128C321.225 157.852 321.291 158.627 321.158 159.454C321.025 160.178 321.091 160.488 321.358 160.385C323.225 159.764 325.092 159.454 326.958 159.454C329.758 159.454 332.158 160.333 334.158 162.09C336.292 163.744 337.359 166.536 337.359 170.464Z" fill="#DC8850"/>
<path d="M397.895 179.768C396.161 182.042 393.961 184.523 391.294 187.211C388.628 189.796 385.828 192.018 382.894 193.879C380.094 195.74 377.427 196.67 374.894 196.67C370.76 196.67 367.494 196.515 365.094 196.205C362.827 195.792 360.96 195.223 359.494 194.499C356.96 193.155 354.893 191.398 353.293 189.227C351.693 187.056 350.76 184.834 350.493 182.559C350.36 181.939 350.293 181.319 350.293 180.698C350.293 180.078 350.293 179.51 350.293 178.993C350.293 172.893 351.827 167.518 354.893 162.866C357.96 158.214 362.294 155.422 367.894 154.492C369.627 154.285 370.961 154.854 371.894 156.198C372.827 157.438 373.294 159.144 373.294 161.315C373.294 164.623 372.161 168.19 369.894 172.015C368.96 173.565 367.96 175.064 366.894 176.512C365.96 177.856 365.16 178.941 364.494 179.768C362.76 181.732 361.427 183.076 360.494 183.8C359.694 184.42 359.294 185.04 359.294 185.661C359.294 187.315 360.627 188.917 363.294 190.468C365.96 192.018 370.094 192.794 375.694 192.794C377.827 192.794 380.027 192.07 382.294 190.623C384.561 189.175 386.761 187.366 388.894 185.195C391.161 183.024 393.161 180.853 394.895 178.683C395.695 177.649 396.428 177.132 397.095 177.132C397.895 177.132 398.295 177.597 398.295 178.527C398.295 178.941 398.161 179.354 397.895 179.768ZM367.894 160.23C367.36 159.609 366.227 159.764 364.494 160.695C362.894 161.522 361.427 163.486 360.094 166.587C359.16 168.862 358.693 171.498 358.693 174.496C358.693 175.323 358.693 176.15 358.693 176.977C358.827 177.804 358.96 178.631 359.094 179.458C361.36 176.46 362.96 174.237 363.894 172.79C364.96 171.239 365.76 169.637 366.294 167.983C366.56 167.156 366.96 166.122 367.494 164.882C368.16 163.641 368.494 162.556 368.494 161.625C368.494 161.005 368.294 160.54 367.894 160.23Z" fill="#DC8850"/>
<path d="M432.824 190.313C433.357 189.899 434.09 189.692 435.024 189.692C435.957 189.692 436.424 190.002 436.424 190.623C436.424 191.346 435.357 192.484 433.224 194.034C431.09 195.585 428.757 196.825 426.223 197.756C423.69 198.686 421.29 199.358 419.023 199.772C417.957 199.875 416.49 199.565 414.623 198.841C412.89 198.221 411.823 197.549 411.423 196.825C410.89 195.895 410.49 194.861 410.223 193.724C409.956 192.484 409.823 191.191 409.823 189.847C409.823 186.643 410.29 183.335 411.223 179.923C412.156 176.512 413.023 173.565 413.823 171.084C412.223 171.498 410.423 171.705 408.423 171.705C406.556 171.705 404.89 171.808 403.423 172.015C402.49 173.048 401.689 174.237 401.023 175.581C400.356 176.822 399.423 178.217 398.223 179.768C396.089 182.456 393.689 185.144 391.023 187.832C388.489 190.416 385.889 192.535 383.222 194.189C380.556 195.843 377.956 196.67 375.422 196.67C373.689 196.67 372.822 196.309 372.822 195.585C372.822 194.861 373.955 194.189 376.222 193.569C379.422 192.639 382.689 190.674 386.022 187.676C389.356 184.678 392.356 181.577 395.023 178.372C396.356 176.822 397.223 175.426 397.623 174.186C398.023 172.842 398.223 171.808 398.223 171.084C398.223 171.084 397.623 170.567 396.423 169.534C395.356 168.396 394.823 167.311 394.823 166.277C394.823 164.003 395.756 161.935 397.623 160.074C399.623 158.214 401.689 157.542 403.823 158.059C405.29 158.369 406.223 158.886 406.623 159.609C407.156 160.333 407.423 161.108 407.423 161.935C407.423 162.866 407.223 163.848 406.823 164.882C406.423 165.812 406.023 166.639 405.623 167.363C406.023 167.776 406.89 167.983 408.223 167.983C410.223 167.983 412.423 167.673 414.823 167.053C416.557 165.088 418.223 163.538 419.823 162.4C421.423 161.263 422.89 160.798 424.223 161.005C425.157 161.108 426.023 161.367 426.824 161.78C427.624 162.194 428.024 162.969 428.024 164.106C428.024 165.037 427.424 166.432 426.223 168.293C424.223 171.084 422.357 174.134 420.623 177.442C418.89 180.647 417.557 183.593 416.623 186.281C415.69 188.865 415.29 190.674 415.423 191.708C415.69 193.052 416.157 193.931 416.823 194.344C417.623 194.758 418.49 194.965 419.423 194.965C420.09 194.965 420.757 194.913 421.423 194.81C422.223 194.603 422.957 194.448 423.623 194.344C425.623 193.827 427.29 193.259 428.624 192.639C429.957 192.018 431.357 191.243 432.824 190.313ZM403.023 164.106C403.023 163.176 402.623 162.504 401.823 162.09C401.689 161.987 401.489 161.935 401.223 161.935C400.556 161.935 399.956 162.297 399.423 163.021C398.889 163.641 398.623 164.261 398.623 164.882C398.623 165.398 398.689 166.019 398.823 166.742C399.089 167.363 399.556 167.518 400.223 167.208C400.889 166.897 401.489 166.484 402.023 165.967C402.689 165.45 403.023 164.83 403.023 164.106Z" fill="#DC8850"/>
<path d="M625.66 108.127C623.794 112.572 620.194 115.984 614.86 118.361C609.527 120.739 602.86 121.928 594.859 121.928C588.593 121.928 581.926 121.514 574.859 120.687C567.925 119.757 561.059 118.62 554.258 117.276C552.792 120.171 551.658 123.22 550.858 126.425C550.192 129.526 549.458 132.938 548.658 136.659C548.792 136.659 549.392 136.711 550.458 136.814C551.658 136.918 552.792 137.021 553.858 137.125C555.058 137.228 555.658 137.28 555.658 137.28C558.325 137.59 560.992 137.745 563.659 137.745C565.392 137.745 566.925 137.641 568.259 137.435C569.059 137.331 570.125 136.918 571.459 136.194C572.926 135.367 573.659 134.902 573.659 134.799V131.697C573.659 130.56 573.926 129.991 574.459 129.991C574.859 129.991 575.459 130.25 576.259 130.767C577.326 131.284 577.926 131.852 578.059 132.473C578.326 133.093 578.459 134.023 578.459 135.264C578.459 136.711 577.392 137.9 575.259 138.83C573.259 139.761 570.792 140.433 567.859 140.846C564.925 141.26 562.125 141.466 559.458 141.466C558.525 141.466 557.592 141.466 556.658 141.466C555.725 141.363 554.925 141.26 554.258 141.156L547.858 141.001C547.858 141.208 547.792 141.415 547.658 141.621C547.658 141.828 547.658 142.087 547.658 142.397C546.058 149.22 544.058 156.146 541.658 163.176C539.391 170.206 536.258 176.615 532.258 182.404C528.258 188.193 523.057 192.587 516.657 195.585C513.857 196.825 511.19 198.118 508.657 199.462C506.257 200.805 503.524 201.943 500.457 202.873C497.523 203.803 493.723 204.269 489.056 204.269C483.056 204.269 478.523 203.39 475.456 201.632C472.523 199.978 470.523 197.601 469.456 194.499C468.523 191.398 468.056 187.728 468.056 183.49C468.056 182.766 468.256 181.422 468.656 179.458C469.189 177.494 469.723 175.53 470.256 173.565C470.923 171.601 471.523 170.257 472.056 169.534C472.989 167.88 474.589 165.812 476.856 163.331C479.256 160.85 481.99 158.369 485.056 155.888C488.123 153.407 491.257 151.339 494.457 149.685C497.657 148.031 500.59 147.204 503.257 147.204C504.324 147.204 505.524 147.876 506.857 149.22C508.324 150.46 509.59 151.908 510.657 153.562C511.724 155.216 512.257 156.611 512.257 157.748C512.257 158.162 511.99 159.144 511.457 160.695C511.057 162.142 510.19 163.796 508.857 165.657C507.524 167.414 505.524 168.965 502.857 170.309C502.324 170.412 501.79 170.464 501.257 170.464C500.857 170.464 500.39 170.464 499.857 170.464C496.123 170.464 494.257 169.895 494.257 168.758C494.257 167.828 495.457 167.001 497.857 166.277C500.257 165.45 502.057 164.985 503.257 164.882C504.59 164.778 505.457 164.365 505.857 163.641C506.257 162.814 506.457 161.057 506.457 158.369C506.457 157.852 506.257 157.077 505.857 156.043C505.59 155.009 505.19 154.027 504.657 153.096C504.257 152.166 503.79 151.701 503.257 151.701C500.99 151.701 498.723 152.476 496.457 154.027C494.323 155.578 492.323 157.49 490.457 159.764C488.59 162.039 486.923 164.313 485.456 166.587C483.99 168.758 482.923 170.567 482.256 172.015C481.99 172.635 481.523 173.669 480.856 175.116C480.19 176.46 479.59 177.856 479.056 179.303C478.523 180.647 478.256 181.681 478.256 182.404C478.256 183.748 478.19 185.144 478.056 186.591C478.056 187.935 478.056 189.175 478.056 190.313C478.056 193.104 478.656 195.378 479.856 197.136C481.19 198.893 484.256 199.772 489.056 199.772C493.19 199.772 496.59 199.203 499.257 198.066C502.057 196.825 504.457 195.378 506.457 193.724C508.59 191.967 510.657 190.261 512.657 188.607C520.791 182.197 527.191 175.013 531.858 167.053C536.524 158.989 539.858 150.254 541.858 140.846V140.536H540.658C540.258 140.639 539.858 140.743 539.458 140.846C539.191 140.846 538.858 140.846 538.458 140.846C537.791 140.846 537.058 140.846 536.258 140.846C535.458 140.743 534.658 140.691 533.858 140.691C532.924 140.691 531.858 140.794 530.658 141.001C529.591 141.208 528.324 141.673 526.858 142.397C526.724 142.5 526.258 142.965 525.458 143.792C524.657 144.619 524.257 145.136 524.257 145.343V146.429C524.257 147.669 524.724 148.651 525.658 149.375C526.458 149.995 526.858 150.667 526.858 151.391C526.858 152.114 526.458 152.735 525.658 153.252C524.991 153.768 524.191 154.027 523.257 154.027C522.324 154.027 521.524 153.768 520.857 153.252C519.524 152.114 518.391 150.874 517.457 149.53C516.657 148.186 516.257 146.584 516.257 144.723C516.257 143.586 516.857 142.604 518.057 141.777C519.391 140.846 520.324 140.278 520.857 140.071C524.324 138.21 527.791 137.28 531.258 137.28C534.724 137.176 538.591 136.866 542.858 136.349C543.791 132.421 544.791 128.854 545.858 125.65C547.058 122.445 548.525 119.447 550.258 116.656C543.591 115.208 537.125 113.709 530.858 112.159C524.591 110.608 518.924 109.264 513.857 108.127C511.057 107.403 508.657 106.731 506.657 106.111C504.79 105.387 501.857 105.026 497.857 105.026C494.923 105.026 491.99 105.336 489.056 105.956C486.256 106.473 484.856 107.817 484.856 109.988C484.856 110.608 484.79 111.332 484.656 112.159C484.656 112.986 484.656 113.813 484.656 114.64C484.656 116.604 484.99 118.62 485.656 120.687C486.323 122.652 487.723 124.357 489.857 125.805C491.99 127.149 495.323 127.924 499.857 128.131C501.724 128.234 503.19 127.924 504.257 127.2C505.457 126.477 506.457 125.753 507.257 125.029C507.79 123.996 508.79 123.479 510.257 123.479C511.59 123.479 512.257 124.202 512.257 125.65C512.257 125.96 512.19 126.27 512.057 126.58C512.057 126.89 511.99 127.252 511.857 127.665C510.524 128.906 508.924 130.095 507.057 131.232C505.324 132.266 502.924 132.783 499.857 132.783C497.59 132.783 494.99 132.473 492.057 131.852C489.256 131.129 486.523 129.888 483.856 128.131C481.19 126.27 479.056 123.737 477.456 120.532C475.989 117.224 475.456 113.037 475.856 107.972C476.123 105.904 477.123 103.94 478.856 102.079C480.723 100.219 482.99 98.7196 485.656 97.5824C488.456 96.3419 491.19 95.7216 493.857 95.7216C495.99 95.7216 498.657 95.9801 501.857 96.4969C505.057 97.0138 508.324 97.6858 511.657 98.5128C515.124 99.2365 518.257 99.9601 521.057 100.684C523.991 101.407 526.258 101.924 527.858 102.234C532.124 103.268 536.458 104.56 540.858 106.111C545.258 107.558 549.792 109.057 554.458 110.608C554.858 109.988 555.458 109.264 556.258 108.437C557.725 106.886 559.192 106.111 560.659 106.111C561.325 106.111 561.659 106.37 561.659 106.886C561.659 107.817 560.725 109.057 558.859 110.608C558.592 110.918 558.258 111.228 557.858 111.538C563.859 113.399 570.059 115.002 576.459 116.346C582.992 117.689 589.726 118.361 596.66 118.361C609.46 118.361 617.46 114.898 620.66 107.972C620.794 105.284 621.527 103.94 622.86 103.94C623.527 103.94 624.127 104.354 624.66 105.181C625.327 106.008 625.66 106.99 625.66 108.127Z" fill="#DC8850"/>
<path d="M599.853 179.768C598.12 182.042 595.92 184.523 593.253 187.211C590.586 189.796 587.786 192.018 584.853 193.879C582.053 195.74 579.386 196.67 576.853 196.67C572.719 196.67 569.453 196.515 567.052 196.205C564.786 195.792 562.919 195.223 561.452 194.499C558.919 193.155 556.852 191.398 555.252 189.227C553.652 187.056 552.719 184.834 552.452 182.559C552.319 181.939 552.252 181.319 552.252 180.698C552.252 180.078 552.252 179.51 552.252 178.993C552.252 172.893 553.785 167.518 556.852 162.866C559.919 158.214 564.252 155.422 569.853 154.492C571.586 154.285 572.919 154.854 573.853 156.198C574.786 157.438 575.253 159.144 575.253 161.315C575.253 164.623 574.119 168.19 571.853 172.015C570.919 173.565 569.919 175.064 568.852 176.512C567.919 177.856 567.119 178.941 566.452 179.768C564.719 181.732 563.386 183.076 562.452 183.8C561.652 184.42 561.252 185.04 561.252 185.661C561.252 187.315 562.586 188.917 565.252 190.468C567.919 192.018 572.053 192.794 577.653 192.794C579.786 192.794 581.986 192.07 584.253 190.623C586.52 189.175 588.72 187.366 590.853 185.195C593.12 183.024 595.12 180.853 596.853 178.683C597.653 177.649 598.387 177.132 599.053 177.132C599.853 177.132 600.253 177.597 600.253 178.527C600.253 178.941 600.12 179.354 599.853 179.768ZM569.853 160.23C569.319 159.609 568.186 159.764 566.452 160.695C564.852 161.522 563.386 163.486 562.052 166.587C561.119 168.862 560.652 171.498 560.652 174.496C560.652 175.323 560.652 176.15 560.652 176.977C560.786 177.804 560.919 178.631 561.052 179.458C563.319 176.46 564.919 174.237 565.852 172.79C566.919 171.239 567.719 169.637 568.252 167.983C568.519 167.156 568.919 166.122 569.452 164.882C570.119 163.641 570.453 162.556 570.453 161.625C570.453 161.005 570.253 160.54 569.853 160.23Z" fill="#DC8850"/>
<path d="M635.182 188.142C633.449 189.486 631.916 190.829 630.582 192.173C629.249 193.517 626.316 195.068 621.782 196.825C621.249 197.446 620.049 198.376 618.182 199.617C616.449 200.857 612.982 201.581 607.782 201.788C604.315 201.891 601.515 201.219 599.381 199.772C597.381 198.428 595.848 196.774 594.781 194.81C593.715 192.845 592.781 191.036 591.981 189.382C591.848 189.486 591.248 189.899 590.181 190.623C589.115 191.346 588.048 192.07 586.981 192.794C585.781 193.517 585.048 193.983 584.781 194.189C584.648 194.293 584.381 194.344 583.981 194.344C583.314 194.344 582.781 194.086 582.381 193.569C581.848 192.949 581.848 192.432 582.381 192.018C584.914 190.054 586.848 188.555 588.181 187.521C589.515 186.384 590.715 185.299 591.781 184.265C592.848 183.231 594.115 181.939 595.581 180.388C597.848 177.7 600.248 175.323 602.782 173.255C605.448 171.084 607.115 169.482 607.782 168.448C607.915 168.345 607.982 168.138 607.982 167.828C607.982 167.518 607.782 167.259 607.382 167.053C607.115 166.846 606.915 166.587 606.782 166.277C606.248 164.623 605.982 163.072 605.982 161.625C605.982 159.351 607.115 156.663 609.382 153.562C610.315 153.045 611.582 152.631 613.182 152.321C614.782 151.908 616.049 151.856 616.982 152.166C618.049 152.58 618.715 153.045 618.982 153.562C619.382 154.079 619.715 154.751 619.982 155.578C619.982 155.681 619.982 155.784 619.982 155.888C620.115 155.991 620.182 156.146 620.182 156.353C620.182 156.973 620.049 157.645 619.782 158.369C619.515 159.092 619.182 159.868 618.782 160.695C618.782 161.108 618.115 161.884 616.782 163.021C615.582 164.158 615.182 164.882 615.582 165.192C616.382 166.536 617.715 168.293 619.582 170.464C621.849 172.945 623.382 175.219 624.182 177.287C625.116 179.354 625.582 181.215 625.582 182.869C625.582 184.834 625.182 186.539 624.382 187.987C623.715 189.434 623.182 190.674 622.782 191.708C623.982 191.812 625.382 191.346 626.982 190.313C628.582 189.175 630.116 187.935 631.582 186.591C633.182 185.144 634.382 184.11 635.182 183.49C635.982 182.869 636.582 182.559 636.982 182.559C637.649 182.559 637.649 183.335 636.982 184.885C636.449 186.436 635.849 187.521 635.182 188.142ZM615.782 158.369C615.782 157.955 615.715 157.49 615.582 156.973C615.449 156.456 615.049 156.146 614.382 156.043H614.182C613.515 156.043 612.982 156.301 612.582 156.818C612.182 157.232 611.849 157.645 611.582 158.059C611.182 158.886 610.782 159.609 610.382 160.23C610.115 160.746 610.248 161.263 610.782 161.78C611.315 161.987 612.249 161.573 613.582 160.54C615.049 159.403 615.782 158.679 615.782 158.369ZM616.182 183.179C616.182 181.629 615.782 179.975 614.982 178.217C614.315 176.357 613.515 174.702 612.582 173.255C611.782 171.808 611.182 170.877 610.782 170.464C610.782 170.464 609.982 171.239 608.382 172.79C606.782 174.237 605.048 175.84 603.182 177.597C601.982 178.631 600.782 179.975 599.581 181.629C598.381 183.283 597.648 184.73 597.381 185.971C597.381 185.971 597.981 186.591 599.181 187.832C600.381 188.969 601.848 190.054 603.582 191.088C605.448 192.122 607.248 192.484 608.982 192.173C611.648 191.657 613.515 190.468 614.582 188.607C615.649 186.643 616.182 184.834 616.182 183.179ZM609.382 195.275H607.582C607.048 195.275 606.448 195.275 605.782 195.275C605.115 195.171 604.448 195.068 603.782 194.965C603.115 194.758 602.115 194.344 600.781 193.724C599.448 193.104 598.781 192.794 598.781 192.794C598.781 192.794 598.715 192.897 598.581 193.104C598.581 193.311 598.581 193.569 598.581 193.879C598.581 194.293 598.648 194.758 598.781 195.275C599.048 195.792 599.515 196.309 600.181 196.825C601.248 197.446 602.182 197.963 602.982 198.376C603.782 198.686 604.848 198.686 606.182 198.376C607.115 198.169 607.848 197.601 608.382 196.67C609.048 195.74 609.382 195.275 609.382 195.275Z" fill="#DC8850"/>
<path d="M685.967 137.435C685.967 137.435 685.967 137.797 685.967 138.52C686.1 139.244 685.833 140.123 685.167 141.156C684.5 142.19 683.033 143.224 680.767 144.258C679.967 144.671 678.5 144.981 676.366 145.188C674.233 145.395 671.833 145.55 669.166 145.653C667.699 148.651 666.099 151.701 664.366 154.802C662.633 157.8 660.833 160.643 658.966 163.331C656.166 167.466 653.766 170.516 651.766 172.48C649.899 174.444 648.432 175.943 647.366 176.977C646.299 177.907 645.566 179.044 645.166 180.388C645.032 181.009 644.899 181.577 644.766 182.094C644.766 182.611 644.766 183.128 644.766 183.645C644.766 187.47 646.166 190.261 648.966 192.018C651.899 193.776 654.699 194.654 657.366 194.654C660.433 194.654 663.499 193.827 666.566 192.173C669.633 190.416 672.166 188.814 674.166 187.366C675.766 186.333 676.966 185.816 677.766 185.816C678.3 185.816 678.566 186.022 678.566 186.436C678.566 187.16 677.833 188.297 676.366 189.847C675.566 190.674 674.233 191.812 672.366 193.259C670.5 194.706 668.166 196.05 665.366 197.291C662.566 198.428 659.433 198.996 655.966 198.996C649.032 198.996 644.366 197.756 641.965 195.275C639.699 192.794 638.565 188.659 638.565 182.869C638.565 178.321 639.165 172.738 640.365 166.122C641.565 159.403 643.432 152.321 645.966 144.878C645.299 144.878 644.632 144.878 643.966 144.878C643.299 144.775 642.699 144.723 642.165 144.723C640.432 144.723 639.099 144.93 638.165 145.343C637.365 145.653 636.699 145.808 636.165 145.808C634.832 145.808 634.165 145.033 634.165 143.482C634.165 141.725 634.765 140.381 635.965 139.451C636.899 138.727 638.499 138.365 640.765 138.365C642.499 138.365 644.832 138.624 647.766 139.14C648.032 138.52 648.299 137.952 648.566 137.435C648.832 136.918 649.032 136.401 649.166 135.884C649.432 134.85 649.699 134.023 649.966 133.403C650.232 132.783 650.566 132.007 650.966 131.077C653.232 125.805 655.699 120.739 658.366 115.88C661.033 111.022 664.899 106.68 669.966 102.855C670.9 101.718 672.166 101.149 673.766 101.149C674.966 101.149 676.033 101.562 676.966 102.389C677.9 103.113 678.3 103.992 678.166 105.026C678.166 105.026 678.1 106.318 677.966 108.902C677.833 111.487 677.566 114.64 677.166 118.361C676.766 121.98 676.166 125.443 675.366 128.751C674.966 130.715 674.366 132.834 673.566 135.109C672.9 137.28 672.033 139.502 670.966 141.777C671.766 141.88 672.5 141.983 673.166 142.087C673.966 142.087 674.7 142.087 675.366 142.087C677.366 142.087 678.9 141.88 679.967 141.466C681.167 140.95 681.833 140.433 681.967 139.916C682.233 139.399 682.367 139.14 682.367 139.14C682.367 137.073 683.033 136.039 684.367 136.039C685.033 136.039 685.567 136.504 685.967 137.435ZM671.766 111.538C670.966 111.435 669.7 112.624 667.966 115.105C666.233 117.586 664.366 120.842 662.366 124.874C660.366 128.906 658.433 133.196 656.566 137.745C656.433 138.158 656.299 138.572 656.166 138.985C656.032 139.295 655.899 139.657 655.766 140.071C656.699 140.278 657.633 140.433 658.566 140.536C659.499 140.639 660.499 140.794 661.566 141.001C662.099 141.105 662.699 141.156 663.366 141.156C664.033 141.156 664.633 141.26 665.166 141.466C665.699 140.329 666.166 139.347 666.566 138.52C666.966 137.59 667.366 136.763 667.766 136.039C669.233 132.214 670.433 128.286 671.366 124.254C672.3 120.222 672.766 117.069 672.766 114.795C672.766 112.934 672.433 111.849 671.766 111.538ZM662.966 145.653H659.366C658.433 145.653 657.499 145.653 656.566 145.653C655.766 145.653 654.966 145.602 654.166 145.498C652.966 149.427 651.766 153.665 650.566 158.214C649.499 162.659 648.632 166.639 647.966 170.154C649.566 168.707 651.232 166.639 652.966 163.951C654.699 161.263 656.433 158.317 658.166 155.112C659.899 151.804 661.499 148.651 662.966 145.653Z" fill="#DC8850"/>
<path fill-rule="evenodd" clip-rule="evenodd" d="M699.527 262.749C689.291 268.852 675.707 273.38 663.699 274.955C658.187 275.742 651.296 275.348 645.981 274.167C634.563 271.805 624.326 265.112 614.287 259.206C607.199 255.072 600.112 251.528 592.238 250.937C585.938 250.544 579.442 251.331 572.749 254.481C559.953 260.387 548.928 266.293 541.645 269.049C540.332 269.574 538.954 270.033 537.511 270.427C537.904 270.427 538.364 270.492 538.889 270.624C544.991 271.017 551.488 270.23 558.378 267.08C559.362 266.686 561.331 266.293 562.709 266.293C564.677 266.293 566.055 267.08 565.071 267.474C554.244 272.986 541.841 274.364 530.03 272.199C522.943 273.38 515.462 273.773 508.178 272.789C501.879 272.199 495.776 270.821 490.264 268.655C482.98 266.096 471.956 260.387 458.963 254.481C456.994 253.562 455.026 252.84 453.057 252.316C448.332 253.759 443.739 255.662 439.277 258.024C437.308 259.009 434.355 259.403 432.19 259.599C431.008 259.796 430.812 259.009 431.599 258.418C436.324 255.662 441.836 253.103 447.545 251.134C444.789 250.872 442.164 250.806 439.67 250.937C431.796 251.528 424.512 255.072 417.622 259.206C416.703 259.731 415.785 260.256 414.866 260.781C415.785 261.306 416.703 261.831 417.622 262.355C424.512 266.49 431.796 270.033 439.67 270.624C445.773 271.017 452.269 270.23 458.963 267.08C459.947 266.686 462.113 266.293 463.491 266.293C465.459 266.293 466.64 267.08 465.853 267.474C451.285 274.955 433.371 274.561 418.409 268.655C415.063 267.474 412.11 265.899 408.96 264.324C401.676 268.655 393.999 272.592 385.927 274.364C380.612 275.545 373.722 275.939 368.21 275.151C362.304 274.561 356.004 272.986 350.098 271.017C343.996 272.986 337.696 274.561 331.79 275.151C326.278 275.939 319.388 275.545 314.073 274.364C306.198 272.789 298.718 268.852 291.631 264.718C288.678 266.096 285.725 267.474 282.575 268.655C267.613 274.561 249.896 274.955 235.328 267.474C234.344 267.08 235.722 266.293 237.691 266.293C239.069 266.293 241.037 266.686 242.021 267.08C248.912 270.23 255.211 271.017 261.511 270.624C269.385 270.033 276.472 266.49 283.559 262.355C284.215 261.962 284.872 261.568 285.528 261.174C284.478 260.518 283.494 259.862 282.575 259.206C275.488 255.072 268.204 251.528 260.33 250.937C258.098 250.806 255.736 250.872 253.243 251.134C259.148 253.103 264.661 255.662 269.385 258.418C270.37 259.009 270.173 259.796 268.991 259.599C266.629 259.403 263.873 259.009 261.904 258.024C257.18 255.531 252.389 253.562 247.534 252.119C245.302 252.644 243.137 253.431 241.037 254.481C228.044 260.387 217.02 266.096 209.736 268.655C204.224 270.821 198.121 272.199 191.822 272.789C184.735 273.773 177.451 273.38 170.561 272.199C158.946 274.167 146.544 272.986 135.913 267.474C135.126 267.08 136.307 266.293 138.275 266.293C139.85 266.293 141.819 266.686 142.803 267.08C149.497 270.23 155.993 271.017 162.096 270.624C162.358 270.624 162.621 270.558 162.883 270.427C161.308 270.033 159.799 269.574 158.355 269.049C151.268 266.293 140.047 260.387 127.251 254.481C120.558 251.331 114.062 250.544 107.762 250.937C99.8875 251.528 92.8005 255.072 85.7135 259.206C75.6735 265.112 65.4367 271.805 54.0188 274.167C48.7035 275.348 41.8134 275.742 36.3013 274.955C24.2927 273.38 10.7093 268.852 0.472467 262.749C-0.314979 262.159 -0.118115 261.371 1.06305 261.568C3.22853 261.765 6.18145 262.159 8.15006 263.143C17.0088 268.064 26.4582 271.017 35.9075 271.805C44.9632 272.395 52.247 269.639 61.1058 265.308C68.3897 261.962 74.6892 258.221 81.5794 254.875C83.023 254.219 84.4667 253.628 85.9103 253.103C86.1728 252.972 86.4353 252.84 86.6978 252.709C86.9603 252.709 87.1571 252.644 87.2884 252.512C94.966 249.559 103.234 247.197 110.912 246.41C116.424 245.622 123.117 246.016 128.629 247.197C139.85 249.756 150.087 256.45 160.127 262.552C164.064 264.915 167.805 266.883 171.939 268.458C176.073 266.883 180.207 264.718 184.341 262.355C194.184 256.45 204.618 249.559 215.839 247.197C221.351 246.016 228.044 245.622 233.556 246.41C235.394 246.541 237.297 246.803 239.265 247.197C239.397 247.197 239.528 247.197 239.659 247.197C244.974 246.016 251.865 245.622 257.377 246.41C265.054 247.197 273.126 249.559 280.803 252.512C281.066 252.644 281.328 252.775 281.591 252.906C281.853 252.906 282.116 252.972 282.378 253.103C283.822 253.759 285.265 254.415 286.709 255.072C288.284 255.859 289.924 256.646 291.631 257.434C299.111 253.103 306.789 248.969 315.254 247.197C320.569 246.016 327.459 245.622 332.775 246.41C338.484 247 344.586 248.378 350.492 250.347C356.398 248.378 362.501 247 368.21 246.41C373.722 245.622 380.612 246.016 385.927 247.197C393.999 248.969 401.676 252.906 408.96 257.237C410.404 256.45 411.913 255.728 413.488 255.072C414.8 254.415 416.178 253.759 417.622 253.103C417.884 252.972 418.147 252.906 418.409 252.906C418.672 252.775 418.934 252.644 419.197 252.512C426.874 249.559 435.143 247.197 442.623 246.41C448.135 245.622 455.026 246.016 460.341 247.197C460.603 247.197 460.931 247.263 461.325 247.394C463.425 247 465.525 246.672 467.625 246.41C472.94 245.622 479.83 246.016 485.145 247.197C496.563 249.559 506.8 256.45 516.84 262.355C520.58 264.718 524.518 266.686 528.652 268.261C532.392 266.686 536.132 264.718 539.873 262.552C549.913 256.45 560.15 249.756 571.371 247.197C576.883 246.016 583.576 245.622 589.088 246.41C596.766 247.197 605.034 249.559 612.712 252.512C612.843 252.644 613.04 252.709 613.302 252.709C613.565 252.84 613.827 252.972 614.09 253.103C615.665 253.628 617.108 254.219 618.421 254.875C625.311 258.221 631.61 261.962 638.894 265.308C647.753 269.639 655.037 272.395 664.092 271.805C673.542 271.017 682.991 268.064 691.85 263.143C693.819 262.159 696.771 261.765 698.937 261.568C700.118 261.371 700.315 262.159 699.527 262.749ZM231.785 249.559C223.91 249.559 217.02 252.119 208.752 256.056C199.893 260.19 192.216 265.308 183.357 268.655C181.913 269.311 180.404 269.836 178.829 270.23C179.354 270.361 179.813 270.492 180.207 270.624C182.176 270.755 184.079 270.755 185.916 270.624C193.79 270.033 201.074 266.49 208.161 262.355C215.642 257.828 223.516 252.709 231.785 249.559ZM402.267 260.781C399.314 259.206 396.164 257.434 393.014 256.056C384.155 251.725 376.675 248.969 367.816 249.559C363.485 249.822 359.154 250.609 354.823 251.922C359.941 253.694 364.666 256.056 368.8 258.418C369.588 259.009 369.391 259.796 368.21 259.599C366.044 259.403 363.091 259.009 361.123 258.024C357.71 256.187 354.167 254.612 350.492 253.3C346.949 254.612 343.405 256.187 339.862 258.024C337.893 259.009 335.137 259.403 332.775 259.599C331.79 259.796 331.397 259.009 332.381 258.418C336.515 256.056 341.24 253.694 346.161 251.922C341.961 250.609 337.631 249.822 333.168 249.559C324.31 248.969 317.026 251.725 308.167 256.056C304.623 257.631 301.474 259.403 298.324 261.174C301.08 262.552 304.033 264.127 306.986 265.505C315.845 269.836 323.325 272.592 332.184 272.002C336.777 271.608 341.305 270.755 345.767 269.442C340.846 267.671 336.318 265.505 332.381 263.143C331.397 262.552 331.79 261.962 332.775 261.962C335.137 262.159 337.893 262.552 339.862 263.537C343.143 265.243 346.555 266.752 350.098 268.064C353.511 266.752 356.857 265.243 360.138 263.537C362.107 262.552 364.863 262.159 367.225 261.962C368.407 261.962 368.603 262.552 367.619 263.143C363.682 265.505 359.154 267.671 354.233 269.442C358.695 270.755 363.223 271.608 367.816 272.002C376.675 272.592 384.155 269.836 393.014 265.505C396.164 264.127 399.314 262.355 402.267 260.781ZM521.762 270.23C520.449 269.705 519.071 269.18 517.628 268.655C508.769 265.308 501.288 260.19 492.232 256.056C483.767 251.922 476.68 249.363 468.215 249.559C476.483 252.709 484.358 257.828 492.036 262.355C498.926 266.49 506.21 270.033 514.084 270.624C515.921 270.755 517.824 270.755 519.793 270.624C520.449 270.492 521.105 270.361 521.762 270.23ZM346.555 264.521C346.686 264.652 346.817 264.718 346.949 264.718C346.817 264.718 346.686 264.718 346.555 264.718C346.555 264.718 346.555 264.652 346.555 264.521Z" fill="#DC8850"/>
<path fill-rule="evenodd" clip-rule="evenodd" d="M347.53 35.532C347.53 35.9121 346.96 36.1021 345.82 36.1021C343.666 36.1021 341.26 35.342 338.599 33.8219C335.813 32.0485 333.026 29.5784 330.239 26.4115C327.832 23.6247 325.869 19.8878 324.349 15.2009C323.335 11.9073 322.828 9.43721 322.828 7.79045C322.828 6.27036 323.208 5.51032 323.969 5.51032C324.349 5.51032 325.109 6.27036 326.249 7.79045C327.642 9.9439 329.099 11.5273 330.619 12.5407L331.569 12.7307C332.076 11.9707 332.456 10.8306 332.709 9.31053C332.962 8.17047 333.342 7.60043 333.849 7.60043C334.736 7.60043 335.179 7.91712 335.179 8.55049C335.179 8.80384 335.116 9.05719 334.989 9.31053C334.989 9.69056 334.989 9.9439 334.989 10.0706C334.989 19.6978 336.763 26.6015 340.31 30.7818C341.83 32.4285 344.046 33.8219 346.96 34.962C347.34 35.0887 347.53 35.2787 347.53 35.532ZM359.121 8.36048C359.121 8.7405 358.994 9.43721 358.74 10.4506C358.614 11.5907 358.551 12.5407 358.551 13.3008C358.551 15.0742 358.614 16.911 358.74 18.8111C358.867 20.7112 358.931 21.7246 358.931 21.8512C358.931 23.2447 358.614 24.7647 357.98 26.4115C357.347 28.1849 356.46 29.8317 355.32 31.3518C354.687 32.2385 353.99 33.1252 353.23 34.0119C352.977 34.5186 352.723 35.0887 352.47 35.722C351.963 36.3554 351.33 36.6721 350.57 36.6721C350.063 36.6721 349.62 36.4821 349.24 36.1021C346.58 33.5686 344.743 31.6051 343.73 30.2117C342.843 29.0717 342.083 27.6149 341.45 25.8415C340.689 24.068 340.246 22.3579 340.119 20.7112C339.866 18.3044 339.739 13.8075 339.739 7.22041C339.739 6.58704 339.993 6.27036 340.499 6.27036C341.386 6.27036 342.146 6.90373 342.78 8.17047C343.16 8.93051 343.35 9.37387 343.35 9.50054C343.603 9.88056 343.92 10.0706 344.3 10.0706C345.06 10.0706 345.82 9.56388 346.58 8.55049C347.213 7.66377 347.657 6.39703 347.91 4.75027C347.91 3.48353 347.973 2.28013 348.1 1.14007C348.227 0.380022 348.543 0 349.05 0C349.683 0 350.063 0.190013 350.19 0.570035C350.19 1.2034 350.507 2.72349 351.14 5.13029C351.647 6.52371 352.28 7.72711 353.04 8.7405C353.8 9.50054 354.37 9.88057 354.75 9.88057C355.13 9.88057 355.637 9.31053 356.27 8.17047C356.904 7.0304 357.474 6.46037 357.98 6.46037C358.741 6.46037 359.121 7.09374 359.121 8.36048ZM350.95 26.9815C350.95 23.688 350.57 19.5078 349.81 14.4408C349.683 13.9341 349.62 13.4274 349.62 12.9207C349.493 12.5407 349.367 12.3507 349.24 12.3507C348.987 12.3507 348.733 13.1741 348.48 14.8208C348.1 16.8476 347.973 19.3178 348.1 22.2313C347.973 25.6515 348.163 28.375 348.67 30.4017C349.05 32.0485 349.43 32.8719 349.81 32.8719C350.57 32.8719 350.95 30.9084 350.95 26.9815ZM376.982 7.79045C376.982 8.04379 376.792 8.93051 376.412 10.4506C375.905 12.4774 375.335 14.4408 374.701 16.3409C373.181 20.1412 370.901 23.6247 367.861 26.7915C365.454 29.4517 362.794 31.7318 359.881 33.6319C357.6 35.152 356.27 35.9121 355.89 35.9121C355.51 35.9121 355.32 35.722 355.32 35.342C355.32 35.2153 355.764 34.6453 356.65 33.6319C357.79 32.2385 358.867 30.7818 359.881 29.2617C362.794 24.7014 364.251 20.2678 364.251 15.9609C364.251 14.9475 364.188 13.8708 364.061 12.7307C363.934 11.5907 363.871 10.9573 363.871 10.8306C363.871 10.3239 364.124 10.0706 364.631 10.0706C364.884 10.0706 365.264 10.5773 365.771 11.5907C366.024 12.224 366.278 12.8574 366.531 13.4908C366.784 13.8708 367.038 14.0608 367.291 14.0608C367.671 14.0608 368.874 12.9207 370.901 10.6406C373.181 7.98046 375.018 6.65038 376.412 6.65038C376.792 6.65038 376.982 7.0304 376.982 7.79045Z" fill="#DC8850"/>
<path fill-rule="evenodd" clip-rule="evenodd" d="M700 56.4333C697.15 56.4333 694.11 58.7134 691.069 58.7134C663.328 58.5234 636.536 54.7232 609.745 48.0728C587.134 42.1824 563.192 35.9121 539.441 39.7123C535.451 40.2823 531.84 41.4224 528.23 42.9425C542.671 48.4528 556.922 55.1032 572.883 55.4832C574.783 55.4832 579.153 58.3334 575.163 58.1434C557.112 57.7633 541.151 50.1629 524.62 44.2726C515.69 48.0728 507.329 53.2031 498.018 56.2433C492.508 57.9534 486.998 59.2834 481.488 60.6135C467.427 64.0337 455.076 61.9436 442.725 59.4734C429.615 67.4539 415.174 75.2443 399.023 72.0142C393.702 71.0641 388.192 69.164 383.252 66.3138C375.651 70.6841 366.721 73.1542 358.17 72.2042C355.89 71.8241 353.42 71.2541 350.95 70.3041C346.77 72.0142 341.83 72.7742 337.079 72.2042C331.189 71.6341 324.539 69.544 318.458 66.3138C312.188 70.6841 304.207 72.9642 296.227 72.7742C281.216 72.2042 269.245 65.3638 257.275 58.1434C245.684 60.8035 234.473 64.2237 221.743 62.7036C204.262 60.6135 189.251 52.253 173.48 46.1727C158.659 51.683 143.838 57.9534 127.877 58.1434C126.357 58.3334 121.037 55.4832 124.267 55.4832C139.278 55.1032 153.149 49.0228 167.02 43.7025C159.229 41.0424 151.249 39.1423 142.698 38.9523C118.187 38.0022 95.3855 44.8426 71.8241 50.3529C48.0728 55.6732 24.3214 58.5234 0 58.7134C2.85016 58.7134 5.89036 56.4333 8.93053 56.4333C39.1423 56.2433 67.2639 51.303 96.3355 44.0826C114.387 39.7123 132.818 35.3421 151.629 36.6721C159.609 37.2422 167.59 38.3822 175.19 40.6624C184.311 37.6222 193.621 35.3421 203.502 35.9121C217.372 36.4821 230.863 40.4724 243.024 46.7427C248.344 49.5929 254.045 53.3931 259.745 57.0033C267.345 55.2932 274.946 53.3931 282.926 52.8231C279.886 53.0131 277.036 54.9132 273.996 55.1032C269.245 55.4832 264.685 56.2433 260.125 57.3833C270.005 63.6537 280.266 69.544 291.287 69.924C298.887 70.114 307.438 67.8339 313.898 63.6537C309.908 60.8035 306.297 57.3833 304.017 53.7731C298.507 44.6526 297.937 25.2715 313.898 25.8415C327.389 26.4115 334.419 39.5223 330.619 51.303C328.719 56.6233 325.299 61.1835 320.928 64.6037C328.149 68.974 337.079 71.2541 344.49 68.594C345.123 68.4673 345.693 68.2773 346.2 68.0239C339.169 63.8437 334.609 56.8133 338.029 48.8328C338.536 47.4394 339.233 46.236 340.119 45.2226C338.219 45.4126 334.229 43.5125 335.369 42.7525C338.979 40.2823 344.11 39.5223 348.86 40.2823C353.99 39.5223 359.691 40.6624 364.251 43.7025C366.721 45.4126 360.831 44.8426 359.501 44.0826C358.17 43.1325 356.65 42.5625 355.13 42.5625C358.931 44.6526 361.781 47.8828 362.541 52.063C363.871 59.8535 359.881 65.5538 353.99 68.974C356.08 69.544 358.361 69.924 360.831 69.544C366.531 68.974 373.181 66.8839 379.072 63.4637C373.751 59.6634 369.951 54.3431 369.001 48.0728C367.291 36.8621 373.751 21.6613 388.572 26.6016C401.493 30.9718 402.823 46.9327 394.843 56.4333C392.372 59.4734 389.332 62.3236 385.912 64.6037C391.992 68.784 399.973 70.8741 408.143 69.544C418.404 68.2139 427.334 63.2737 435.885 57.9533C429.805 56.8133 423.534 55.6732 417.074 55.1032C419.924 55.2932 422.964 52.633 425.814 52.8231C430.755 53.2031 435.315 54.1531 440.065 55.4832C444.625 52.633 448.996 49.7829 453.746 47.3127C466.857 40.4724 480.728 36.1021 496.118 35.9121C506.759 35.7221 516.829 38.7623 526.9 42.3725C535.261 39.7123 544.191 37.6222 552.742 37.0522C576.873 35.152 599.104 41.0424 622.096 46.5527C647.747 52.8231 673.398 56.2433 700 56.4333ZM256.705 57.7633C253.285 55.6732 249.864 53.5831 246.444 51.683C225.733 39.9023 204.642 35.3421 181.84 43.1325C183.614 43.7659 185.324 44.5259 186.971 45.4126C200.651 52.253 214.902 59.6634 230.673 60.4235C239.794 60.9935 248.344 59.4734 256.705 57.7633ZM316.748 61.7536C321.118 58.1434 324.349 53.3931 325.109 47.6928C325.679 43.8926 325.869 39.7123 324.349 35.9121C322.258 30.7818 315.228 26.0315 310.288 31.1618C305.537 35.9121 304.967 43.8925 307.438 49.7829C308.958 54.1531 312.378 58.3334 316.748 61.7536ZM349.05 66.5038C353.04 64.2237 356.46 60.6135 356.84 56.0532C357.41 50.7329 354.75 45.4126 350.38 43.5125C346.39 45.6026 343.16 50.1629 342.97 54.1531C342.78 59.2834 345.06 63.8437 349.05 66.5038ZM382.112 61.5636C386.482 58.3334 390.282 54.5332 391.992 49.9729C393.702 45.4126 396.173 25.2715 384.202 28.8817C377.552 30.9718 374.511 37.6222 374.321 43.8926C374.321 50.7329 377.172 57.0033 382.112 61.5636ZM522.91 43.7025C519.743 42.5625 516.576 41.5491 513.409 40.6624C490.038 34.202 466.857 44.4626 447.856 56.2433C447.349 56.4966 446.906 56.7499 446.525 57.0033C453.366 58.9034 460.396 60.6135 467.807 60.8035C488.518 60.9935 501.819 50.9229 519.87 44.6526C520.883 44.2726 521.896 43.9559 522.91 43.7025Z" fill="#DC8850"/>
</svg>
